<?xml version="1.0" encoding="UTF-8" standalone="no"?>
<svg
   version="1.1"
   width="361.00003"
   height="323.00003"
   id="svg169"
   sodipodi:docname="wlc-house.svg"
   inkscape:version="1.4 (e7c3feb1, 2024-10-09)"
   xmlns:inkscape="http://www.inkscape.org/namespaces/inkscape"
   xmlns:sodipodi="http://sodipodi.sourceforge.net/DTD/sodipodi-0.dtd"
   xmlns="http://www.w3.org/2000/svg"
   xmlns:svg="http://www.w3.org/2000/svg">
  <sodipodi:namedview
     id="namedview1"
     pagecolor="#ffffff"
     bordercolor="#000000"
     borderopacity="0.25"
     inkscape:showpageshadow="2"
     inkscape:pageopacity="0.0"
     inkscape:pagecheckerboard="0"
     inkscape:deskcolor="#d1d1d1"
     inkscape:zoom="1.2744545"
     inkscape:cx="406.44841"
     inkscape:cy="255.01107"
     inkscape:window-width="1712"
     inkscape:window-height="1069"
     inkscape:window-x="1360"
     inkscape:window-y="38"
     inkscape:window-maximized="0"
     inkscape:current-layer="svg169" />
  <defs
     id="defs169" />
  <g
     id="g1"
     transform="matrix(0.96739684,0,0,0.98299521,-350.31974,12.395536)">
    <path
       d="m 447.68712,91.280564 160.17124,-15.45451 8.76022,10.243327 -4.68933,227.456939 H 439.70654 Z"
       fill="#fcfafe"
       id="path1"
       style="stroke-width:6.22646"
       sodipodi:nodetypes="cccccc" />
    <path
       d="m 528.83803,2.6582179 c 3.9711,0.544589 5.74065,2.403774 8.48438,5.226563 1.28003,1.301308 1.28003,1.301308 2.58593,2.6289061 0.8843,0.913945 1.7686,1.82789 2.67969,2.769531 5.28407,5.417347 10.54501,10.73028 16.29785,15.649902 4.41766,3.903852 8.46787,8.204675 12.59668,12.408692 3.30783,3.344114 6.62545,6.603883 10.19922,9.664062 5.32534,4.58163 10.21444,9.603135 15.15625,14.589844 0.97502,0.980053 1.95028,1.959872 2.92578,2.939453 2.36039,2.37207 4.71839,4.746456 7.07422,7.123047 -1.95304,6.032595 -4.08533,11.963139 -6.40625,17.863281 -0.32109,0.8222 -0.64217,1.64439 -0.97299,2.4915 -1.75634,4.493631 -3.5242,8.982711 -5.29312,13.471391 -0.72663,1.84562 -1.45303,3.69132 -2.1792,5.53711 -0.35837,0.91041 -0.71674,1.82082 -1.08597,2.75882 -2.14435,5.46926 -4.21054,10.96004 -6.21091,16.48337 -0.47114,1.27791 -0.94311,2.55551 -1.41601,3.83276 -0.84254,2.28982 -1.66345,4.58778 -2.45703,6.89502 -2.98934,8.01211 -7.28112,12.461 -13.97852,17.66675 -0.67225,0.54866 -1.34449,1.09731 -2.03711,1.6626 -1.73879,1.41102 -3.49957,2.78592 -5.27539,4.1499 -1.16289,0.90218 -2.32565,1.80452 -3.48828,2.70703 -2.01528,1.56383 -4.03372,3.12319 -6.05469,4.67969 -2.22121,1.62299 -2.22121,1.62299 -3.14453,3.80078 0.61411,0.1751 1.22821,0.35019 1.86093,0.53059 5.94174,1.73252 11.68576,3.74089 17.42813,6.04363 1.24395,0.49304 1.24395,0.49304 2.51303,0.99605 2.6092,1.03518 5.21608,2.07609 7.82291,3.11723 1.785,0.70937 3.57016,1.41835 5.35547,2.12695 4.34159,1.72415 8.68111,3.45343 13.01953,5.18555 -0.19626,-1.02521 -0.39252,-2.05042 -0.59473,-3.10669 -1.52369,-8.00814 -2.98585,-16.01178 -4.15527,-24.08081 -0.13793,-0.88752 -0.27586,-1.77504 -0.41797,-2.68945 -0.12504,-0.85916 -0.25008,-1.71832 -0.3789,-2.60352 -0.11183,-0.75176 -0.22366,-1.50353 -0.33887,-2.27807 -0.25034,-4.91106 1.49634,-9.11398 3.25683,-13.63209 0.23792,-0.61346 0.47583,-1.22692 0.72095,-1.85897 0.77772,-2.00176 1.56144,-4.0011 2.34546,-6.0004 0.54263,-1.39232 1.08503,-2.78474 1.6272,-4.17725 3.81587,-9.78428 7.69756,-19.54201 11.61426,-29.28637 2.84183,-7.07031 5.62829,-14.157691 8.32104,-21.286382 3.02977,1.352312 5.08473,2.854805 7.39062,5.230469 0.94166,0.958095 0.94166,0.958095 1.90235,1.935552 0.96873,1.00063 0.96873,1.00063 1.95703,2.02148 3.77136,3.87548 7.53441,7.683761 11.64063,11.207031 5.66008,4.87305 10.80753,10.25866 16.04296,15.57813 4.25276,4.2941 8.56962,8.40339 13.15528,12.33886 3.24709,2.86879 6.25684,5.96819 9.28613,9.06348 1.21382,1.23926 2.42986,2.47636 3.64844,3.71094 0.7877,0.8051 0.7877,0.8051 1.59131,1.62646 1.37629,1.40036 1.37629,1.40036 3.38525,2.2876 0,0.66 0,1.32 0,2 -11.88,0 -23.76,0 -36,0 0,52.8 0,105.6 0,160 -12.87,0 -25.74,0 -39,0 -0.61875,-4.455 -1.2375,-8.91 -1.875,-13.5 -1.77589,-12.62825 -3.69439,-25.23194 -5.68359,-37.82813 -0.22737,-1.44197 -0.45472,-2.88395 -0.68207,-4.32592 -1.03176,-6.5384 -2.06763,-13.07609 -3.11538,-19.61195 -0.44276,-2.76838 -0.8812,-5.53744 -1.31872,-8.30665 -0.30559,-1.92426 -0.6169,-3.8476 -0.92837,-5.77092 -0.8844,-5.61171 -1.66561,-10.97261 -1.39687,-16.65643 -1.161,-0.12484 -1.161,-0.12484 -2.34546,-0.2522 -4.95131,-1.01315 -9.4413,-2.84573 -14.1272,-4.71264 -1.00067,-0.39337 -2.00134,-0.78674 -3.03233,-1.19204 -3.18803,-1.25472 -6.37278,-2.51755 -9.55751,-3.78062 -2.14627,-0.84624 -4.29276,-1.69195 -6.43945,-2.53711 -15.70989,-6.19004 -15.70989,-6.19004 -19.13695,-7.64821 -3.00507,-1.11642 -4.34777,-0.94838 -7.3611,0.12282 -2.72226,1.90891 -2.72226,1.90891 -5.4375,4.375 -1.0648,0.91983 -2.13127,1.83773 -3.19922,2.75391 -0.5522,0.47582 -1.1044,0.95165 -1.67334,1.44189 -2.7513,2.3268 -5.5943,4.5321 -8.43994,6.7417 -5.21528,4.06653 -10.37319,8.19749 -15.5,12.375 -0.68143,0.55518 -1.36286,1.11037 -2.06494,1.68237 -1.30943,1.06696 -2.61883,2.13393 -3.92822,3.20093 -5.4954,4.47055 -11.04259,8.87359 -16.62183,13.23877 -5.93384,4.64567 -11.83488,9.33013 -17.69751,14.06543 -0.6666,0.5352 -1.33321,1.07041 -2.02002,1.62183 -3.6912,2.99282 -7.12375,6.07668 -10.41748,9.50317 1.82531,0.7425 1.82531,0.7425 3.6875,1.5 0.68449,0.27844 1.36899,0.55687 2.07422,0.84375 2.62471,0.76955 4.51715,1.005 7.23828,0.65625 2.04787,-1.4798 2.04787,-1.4798 3.8125,-3.5625 2.5377,-2.7028 5.05586,-5.27874 7.875,-7.6875 2.57661,-2.20779 5.0919,-4.46428 7.56641,-6.78516 0.57596,-0.53915 1.15193,-1.0783 1.74536,-1.63379 1.1479,-1.07762 2.2924,-2.15889 3.4331,-3.24414 2.68949,-2.51989 5.11982,-4.70611 8.56763,-6.08691 -1.67416,3.71736 -3.98717,6.90715 -6.375,10.1875 -0.89114,1.2353 -1.78174,2.471 -2.67188,3.70703 -0.47373,0.65694 -0.94746,1.31388 -1.43554,1.99072 -2.73689,3.81385 -5.43852,7.65259 -8.14258,11.48975 -0.53286,0.75563 -1.06573,1.51126 -1.61474,2.28979 -1.25379,1.77815 -2.50708,3.55664 -3.76026,5.33521 2.97,0.66 5.94,1.32 9,2 0.52207,-0.64324 1.04414,-1.28648 1.58203,-1.94922 4.29491,-5.27274 8.63287,-10.49937 13.04297,-15.67578 4.27047,-5.01665 8.39733,-10.12122 12.375,-15.375 0,3.68131 -1.06263,5.22695 -2.88672,8.41016 -0.60908,1.07314 -1.21816,2.14629 -1.8457,3.25195 -0.96777,1.68319 -0.96777,1.68319 -1.95508,3.40039 -4.3162,7.55224 -8.52894,15.10209 -12.3125,22.9375 1.65,0.33 3.3,0.66 5,1 6.07165,-7.09893 11.55624,-14.46133 16.83691,-22.15991 2.48873,-3.59985 4.90485,-6.87595 8.16309,-9.84009 -1.42485,3.79499 -3.16464,7.25036 -5.15234,10.78125 -0.61166,1.08926 -1.22332,2.17852 -1.85352,3.30078 -0.63744,1.12793 -1.27488,2.25586 -1.93164,3.41797 -0.63357,1.12793 -1.26715,2.25586 -1.91992,3.41797 -2.66075,4.72835 -5.33266,9.44034 -8.14258,14.08203 1.98,0.66 3.96,1.32 6,2 0.27908,-0.58918 0.55816,-1.17836 0.8457,-1.7854 1.07347,-2.05952 2.22482,-3.79975 3.62305,-5.64819 0.48436,-0.64325 0.96873,-1.28649 1.46777,-1.94922 0.51595,-0.67805 1.0319,-1.3561 1.56348,-2.05469 0.52884,-0.69996 1.05768,-1.39992 1.60254,-2.12109 4.92692,-6.51026 9.90033,-12.98494 14.89746,-19.44141 0,3.70009 -1.0901,5.27854 -2.92188,8.48047 -0.61359,1.08217 -1.22718,2.16433 -1.85937,3.2793 -0.97453,1.69672 -0.97453,1.69672 -1.96875,3.42773 -3.91614,6.86519 -7.80857,13.69501 -11.25,20.8125 1.98,0.33 3.96,0.66 6,1 0.27981,-0.59063 0.55961,-1.18126 0.8479,-1.78979 1.06266,-2.03864 2.19522,-3.74951 3.58569,-5.57349 0.47921,-0.63293 0.95842,-1.26586 1.45215,-1.91797 0.51208,-0.67031 1.02416,-1.34063 1.55176,-2.03125 1.07754,-1.42264 2.15434,-2.84583 3.23047,-4.26953 0.82443,-1.08982 0.82443,-1.08982 1.66553,-2.20166 2.66922,-3.54985 5.29482,-7.13128 7.9165,-10.71631 0.47752,-0.65267 0.95503,-1.30534 1.44702,-1.97778 1.10174,-1.50686 2.20248,-3.01445 3.30298,-4.52222 0.33,0.66 0.66,1.32 1,2 -1.34102,2.55594 -2.74116,4.98226 -4.25,7.4375 -0.92011,1.52814 -1.83935,3.05681 -2.75781,4.58594 -0.4863,0.80534 -0.9726,1.61068 -1.47364,2.44043 -2.59719,4.33757 -5.11814,8.71901 -7.64355,13.09863 -0.94004,1.62634 -1.88014,3.25264 -2.82031,4.87891 -0.68499,1.18614 -1.36992,2.37232 -2.05469,3.55859 2.31,0.66 4.62,1.32 7,2 0.25008,-0.81727 0.50016,-1.63453 0.75781,-2.47656 1.44931,-4.11094 3.23711,-7.97054 5.11719,-11.89844 0.33902,-0.71672 0.67805,-1.43344 1.02734,-2.17188 2.30255,-4.85022 4.68361,-9.65749 7.09766,-14.45312 0.99,1.485 0.99,1.485 2,3 -0.66,0 -1.32,0 -2,0 -0.12689,0.86512 -0.25378,1.73024 -0.38452,2.62158 -0.5957,3.26985 -1.43739,6.27446 -2.46314,9.43311 -0.35771,1.10859 -0.71543,2.21719 -1.08398,3.35937 -0.37318,1.14211 -0.74637,2.28422 -1.13086,3.46094 -0.37705,1.16531 -0.7541,2.33062 -1.14258,3.53125 -0.92787,2.86583 -1.85962,5.73034 -2.79492,8.59375 0.78375,0.14438 1.5675,0.28875 2.375,0.4375 2.625,0.5625 2.625,0.5625 4.625,1.5625 0.0812,-1.12277 0.16242,-2.24555 0.24609,-3.40234 0.87224,-7.85011 2.96608,-15.49609 4.81641,-23.16016 0.38135,-1.59689 0.76222,-3.19389 1.14258,-4.79102 0.92599,-3.88353 1.85862,-7.76542 2.79492,-11.64648 0.33,0 0.66,0 1,0 -0.68405,10.3107 -1.57886,20.58951 -2.5625,30.875 -0.14012,1.47785 -0.2801,2.95572 -0.41992,4.43359 -0.33751,3.56397 -0.67698,7.12774 -1.01758,10.69141 1.65,0 3.3,0 5,0 2.97,-12.87 5.94,-25.74 9,-39 0.33,0 0.66,0 1,0 -0.50018,9.80622 -1.16932,19.59096 -2,29.375 -0.12448,1.50639 -0.12448,1.50639 -0.25147,3.04321 -0.082,0.94223 -0.16403,1.88445 -0.24853,2.85523 -0.0722,0.83966 -0.14438,1.67932 -0.21875,2.54443 -0.28125,2.18213 -0.28125,2.18213 -1.28125,5.18213 1.98,0.66 3.96,1.32 6,2 0.10441,-1.05316 0.20883,-2.10633 0.31641,-3.19141 0.75252,-6.01096 2.22376,-11.85854 3.62109,-17.74609 0.53025,-2.25904 1.0602,-4.51816 1.58984,-6.77734 0.25121,-1.06719 0.50242,-2.13437 0.76123,-3.23389 0.93508,-4.01049 1.82849,-8.02901 2.71143,-12.05127 0.33,0 0.66,0 1,0 -0.64732,9.21395 -1.53932,18.38328 -2.5625,27.5625 -0.27412,2.45942 -0.54634,4.91904 -0.81641,7.37891 -0.11932,1.06935 -0.23863,2.13871 -0.36157,3.24047 -0.32066,3.0103 -0.32066,3.0103 -0.25952,6.81812 1.98,0.66 3.96,1.32 6,2 0.11602,-1.08926 0.23203,-2.17852 0.35156,-3.30078 0.67274,-5.36894 1.8464,-10.60937 3.02344,-15.88672 0.2226,-1.01071 0.44521,-2.02141 0.67456,-3.06274 1.60408,-7.26053 3.24196,-14.51302 4.95044,-21.74976 0.33,0 0.66,0 1,0 0.2466,9.92553 -0.68157,19.74335 -1.5,29.625 -0.1449,1.78513 -0.28943,3.57028 -0.43359,5.35547 -0.35128,4.34019 -0.70748,8.67996 -1.06641,13.01953 1.65,0.33 3.3,0.66 5,1 0,0.33 0,0.66 0,1 -58.41,0 -116.82,0 -177,0 0,-52.8 0,-105.6 0,-160 -11.88,0 -23.76,0 -36,0 6.82909,-7.96727 6.82909,-7.96727 10.375,-11.5 0.68836,-0.69094 1.37672,-1.38188 2.08594,-2.09375 2.01772,-1.91218 4.06278,-3.72407 6.17187,-5.53125 5.21465,-4.53194 10.01934,-9.45759 14.86719,-14.375 5.36425,-5.44122 10.72107,-10.77711 16.52539,-15.74805 3.83399,-3.40167 7.38259,-7.098641 10.97461,-10.751951 8.42235,-8.566078 8.42235,-8.566078 12.9375,-12.437501 4.95175,-4.255558 9.48315,-8.913766 14.0625,-13.5625 5.1818,-5.260312 10.37061,-10.392507 15.97656,-15.199219 4.02157,-3.57904 7.74861,-7.46536 11.52344,-11.300781 8.95393,-9.097648 8.95393,-9.097648 13.47656,-12.972656 5.84055,-5.010972 11.11432,-10.611329 16.48438,-16.115235 0.81468,-0.825644 1.62937,-1.651289 2.46875,-2.5019531 0.7346,-0.751443 1.46921,-1.502885 2.22607,-2.277099 1.84424,-1.633057 1.84424,-1.633057 3.84424,-1.633057 0.33,-0.99 0.66,-1.98 1,-3 z"
       fill="#b087ec"
       id="path3" />
    <path
       d="m 616.83803,86.658218 c 3.02977,1.352312 5.08473,2.854805 7.39062,5.230469 0.62778,0.63873 1.25555,1.277462 1.90235,1.935552 0.64582,0.66709 1.29164,1.33417 1.95703,2.02148 3.77136,3.87548 7.53441,7.683761 11.64062,11.207031 5.66009,4.87305 10.80754,10.25866 16.04297,15.57813 4.25275,4.2941 8.56962,8.40339 13.15528,12.33886 3.24709,2.86879 6.25684,5.96819 9.28613,9.06348 1.21382,1.23926 2.42986,2.47636 3.64844,3.71094 0.52513,0.53673 1.05026,1.07346 1.59131,1.62646 1.37629,1.40036 1.37629,1.40036 3.38525,2.2876 0,0.66 0,1.32 0,2 -11.88,0 -23.76,0 -36,0 0,52.8 0,105.6 0,160 -12.87,0 -25.74,0 -39,0 -0.61875,-4.455 -1.2375,-8.91 -1.875,-13.5 -1.7735,-12.61699 -3.69211,-25.20878 -5.68359,-37.79297 -0.22739,-1.43958 -0.45474,-2.87917 -0.68207,-4.31875 -1.03125,-6.52522 -2.06653,-13.04973 -3.11538,-19.57214 -0.44326,-2.76406 -0.88153,-5.52889 -1.31872,-8.29392 -0.30506,-1.9182 -0.61662,-3.83536 -0.92837,-5.75249 -0.94591,-6.00157 -1.63917,-11.69338 -1.39687,-17.76973 -0.53367,-0.17016 -1.06734,-0.34031 -1.61719,-0.51562 -7.82658,-2.54567 -15.31256,-5.24223 -22.38281,-9.48438 -1.65615,-0.38219 -3.32457,-0.71395 -5,-1 -3.25,-0.8125 -3.25,-0.8125 -6,-2 -0.875,-2.125 -0.875,-2.125 -1,-4 5.33885,-0.96274 5.33885,-0.96274 8,-1 1.5625,1.375 1.5625,1.375 3,3 3.61023,0.73042 3.61023,0.73042 7,1 0,0.66 0,1.32 0,2 1.0725,0.12375 2.145,0.2475 3.25,0.375 3.25093,0.54182 4.92805,1.16851 7.75,2.625 1.99544,0.35963 3.99543,0.69537 6,1 -0.30615,-3.12566 -0.621,-6.25038 -0.9375,-9.375 -0.13052,-1.33418 -0.13052,-1.33418 -0.26367,-2.69531 -0.13052,-1.27617 -0.13052,-1.27617 -0.26367,-2.57813 -0.0786,-0.78552 -0.15711,-1.57104 -0.23804,-2.38037 -0.20408,-2.04254 -0.20408,-2.04254 -1.29712,-3.97119 -0.39489,-2.22232 -0.74197,-4.45325 -1.0625,-6.6875 -0.1766,-1.20012 -0.3532,-2.40023 -0.53516,-3.63672 -0.52352,-4.78287 -0.93589,-9.07512 0.59766,-13.67578 0.99,-0.495 0.99,-0.495 2,-1 0.37643,-1.65746 0.70154,-3.32674 1,-5 0.61229,-1.84481 1.25949,-3.67832 1.9375,-5.5 0.33902,-0.91781 0.67805,-1.83562 1.02734,-2.78125 0.98412,-2.5847 1.99921,-5.15444 3.03516,-7.71875 0.66,0 1.32,0 2,0 0.10312,-1.05187 0.20625,-2.10375 0.3125,-3.1875 0.6875,-3.8125 0.6875,-3.8125 2.125,-6.1875 1.85648,-3.11888 2.38869,-5.93553 3.08984,-9.46484 0.55166,-2.52119 1.41152,-4.81049 2.47266,-7.16016 0.66,0 1.32,0 2,0 0.10312,-1.09312 0.20625,-2.18625 0.3125,-3.3125 0.65646,-5.377151 2.17109,-10.499288 3.6875,-15.687502 z"
       fill="#b087eb"
       id="path5" />
    <path
       d="m 534.83803,117.65822 c 10.56,0 21.12,0 32,0 0,10.56 0,21.12 0,32 -10.56,0 -21.12,0 -32,0 0,-10.56 0,-21.12 0,-32 z"
       fill="#fcfafe"
       id="path10" />
    <path
       d="m 493.83803,117.65822 c 10.56,0 21.12,0 32,0 0,10.56 0,21.12 0,32 -10.56,0 -21.12,0 -32,0 0,-10.56 0,-21.12 0,-32 z"
       fill="#fdfafe"
       id="path11" />
    <path
       d="m 534.83803,77.658218 c 10.56,0 21.12,0 32,0 0,10.56 0,21.120001 0,32.000002 -10.56,0 -21.12,0 -32,0 0,-10.560001 0,-21.120002 0,-32.000002 z"
       fill="#fcf9fe"
       id="path12" />
    <path
       d="m 493.83803,77.658218 c 10.56,0 21.12,0 32,0 0,10.56 0,21.120001 0,32.000002 -10.56,0 -21.12,0 -32,0 0,-10.560001 0,-21.120002 0,-32.000002 z"
       fill="#fdfafe"
       id="path13" />
    <path
       d="m 652.83803,47.658218 c 3.16145,3.16145 3.0342,7.661994 3.5918,11.970703 0.81138,5.129239 2.19094,7.689077 6.4082,11.029297 5.74459,3.131411 12.1768,3.424034 18.59375,3.691406 0.79406,0.101836 1.58812,0.203672 2.40625,0.308594 0.495,0.99 0.495,0.99 1,2 -1.25104,0.05607 -1.25104,0.05607 -2.52734,0.113281 -6.98225,0.407898 -12.97858,1.300333 -19.47266,3.886719 -0.99,0.33 -1.98,0.66 -3,1 -4.15969,6.361877 -4.3183,13.865171 -4.65625,21.207032 -0.34375,2.79297 -0.34375,2.79297 -2.34375,4.79297 -0.0374,-0.90621 -0.0748,-1.81242 -0.11328,-2.74609 -0.39133,-7.251071 -1.1526,-13.522629 -3.88672,-20.253912 -0.33,-0.99 -0.66,-1.98 -1,-3 -2.19933,-1.165136 -2.19933,-1.165136 -5,-2 -1.51594,-0.525938 -1.51594,-0.525938 -3.0625,-1.0625 -5.17813,-1.461384 -10.59242,-1.603981 -15.9375,-1.9375 0,-0.66 0,-1.32 0,-2 1.08539,-0.10957 2.17078,-0.219141 3.28906,-0.332031 1.44538,-0.159555 2.89069,-0.319745 4.33594,-0.480469 1.06928,-0.105381 1.06928,-0.105381 2.16016,-0.212891 4.65863,-0.534247 8.04853,-1.691271 12.21484,-3.974609 0.66,0 1.32,0 2,0 2.70396,-7.251523 3.99323,-14.336683 5,-22 z"
       fill="#b088eb"
       id="path16" />
    <path
       d="m 583.83803,263.65822 c 0.33,0 0.66,0 1,0 0.2466,9.92553 -0.68157,19.74335 -1.5,29.625 -0.1449,1.78513 -0.28943,3.57028 -0.43359,5.35547 -0.35128,4.34019 -0.70748,8.67996 -1.06641,13.01953 1.65,0.33 3.3,0.66 5,1 0,0.33 0,0.66 0,1 -58.08,0 -116.16,0 -176,0 0,-0.33 0,-0.66 0,-1 56.1,0 112.2,0 170,0 0,-8.58 0,-17.16 0,-26 -0.33,-0.33 -0.66,-0.66 -1,-1 0.50173,-7.52595 2.20329,-14.68884 4,-22 z"
       fill="#ac8cd9"
       id="path34" />
    <path
       d="m 595.83803,269.65822 c 0.33,0 0.66,0 1,0 0.43476,4.33686 0.86163,8.6744 1.28174,13.01269 0.14343,1.47026 0.28888,2.94032 0.43652,4.41016 0.89125,8.88819 1.51346,17.63016 1.28174,26.57715 -2.97,0 -5.94,0 -9,0 0.63346,-9.83389 1.76195,-19.55096 3.0625,-29.3125 0.18847,-1.4342 0.37662,-2.86845 0.56445,-4.30273 0.45407,-3.46208 0.91235,-6.92357 1.37305,-10.38477 z"
       fill="#b08ee5"
       id="path40" />
    <path
       d="m 694.83803,-1.3417821 c 0.66,0 1.32,0 2,0 0.42318,1.98567708 0.84635,3.9713542 1.26953,5.957031 0.87415,2.44482 1.65329,3.485087 3.73047,5.042969 2.49444,0.7879811 2.49444,0.7879811 5.1875,1.1875001 0.90105,0.158555 1.80211,0.317109 2.73047,0.480469 0.68707,0.10957 1.37414,0.21914 2.08203,0.332031 -2.33685,2.336849 -3.25844,2.337468 -6.4375,2.8125 -3.73525,0.773597 -3.73525,0.773597 -6.5625,3.3125 -0.87169,2.506105 -1.26799,4.516454 -1.5625,7.125 -0.14438,1.2375 -0.28875,2.475 -0.4375,3.75 -0.66,0.33 -1.32,0.66 -2,1 -0.098,-0.831445 -0.19594,-1.662891 -0.29688,-2.519531 -0.14953,-1.08668 -0.29906,-2.17336 -0.45312,-3.292969 -0.13922,-1.078945 -0.27844,-2.157891 -0.42188,-3.269531 -0.59633,-2.945033 -0.59633,-2.945033 -2.51562,-4.730469 -2.85665,-1.466926 -5.38678,-1.926257 -8.5625,-2.375 -1.07766,-0.158555 -2.15531,-0.317109 -3.26563,-0.480469 -0.81984,-0.10957 -1.63968,-0.21914 -2.48437,-0.332031 0,-0.33 0,-0.66 0,-1 0.90363,-0.10957 1.80727,-0.219141 2.73828,-0.332031 1.17949,-0.158555 2.35899,-0.31711 3.57422,-0.480469 1.75764,-0.22623 1.75764,-0.22623 3.55078,-0.457031 3.18931,-0.7427161 4.3177,-1.0756861 6.13672,-3.7304691 0.77814,-2.033419 0.77814,-2.033419 1.1875,-4.1875 0.26812,-1.258125 0.53625,-2.51625002 0.8125,-3.8125 z"
       fill="#ae94d6"
       id="path42" />
    <path
       d="m 492.83803,232.65822 c 0,3.56621 -0.70866,4.31062 -2.81641,7.09766 -0.59659,0.79752 -1.19318,1.59505 -1.80786,2.41674 -0.63961,0.84088 -1.27923,1.68175 -1.93823,2.5481 -1.28742,1.71543 -2.57389,3.43157 -3.85937,5.14844 -0.6194,0.82468 -1.23879,1.64935 -1.87696,2.49902 -2.61893,3.52549 -5.10411,7.13268 -7.56445,10.77051 -0.37512,0.50144 -0.75023,1.00289 -1.13672,1.51953 -0.33,0 -0.66,0 -1,0 -0.33,-1.65 -0.66,-3.3 -1,-5 -3.43338,1.20633 -5.50364,2.38477 -8,5 -0.66,0 -1.32,0 -2,0 3.0055,-6.69672 9.15023,-11.19742 14.61328,-15.89844 3.70509,-3.26242 7.3049,-6.63865 10.90674,-10.0144 2.41302,-2.24729 4.72966,-4.25361 7.47998,-6.08716 z"
       fill="#b08ce3"
       id="path43" />
    <path
       d="m 721.83803,49.658218 c 0.33,0 0.66,0 1,0 0.34031,1.60875 0.34031,1.60875 0.6875,3.25 1.47067,4.201921 2.55389,5.477353 6.3125,7.75 2.68507,0.789466 2.68507,0.789466 5,1 -1,2 -1,2 -2.77734,2.710938 -1.43627,0.441528 -2.87378,0.879053 -4.3125,1.312499 -2.52673,1.291782 -2.98407,2.313473 -3.91016,4.976563 -0.45275,2.814967 -0.45275,2.814967 -0.625,5.75 -0.0748,0.984844 -0.14953,1.969687 -0.22656,2.984375 -0.049,0.747656 -0.098,1.495312 -0.14844,2.265625 -1.96091,-3.571954 -2.64838,-6.897962 -3.33984,-10.878906 -0.78357,-2.51762 -1.57373,-3.525021 -3.66016,-5.121094 -2.03342,-0.778137 -2.03342,-0.778137 -4.1875,-1.1875 -1.25813,-0.268125 -2.51625,-0.53625 -3.8125,-0.8125 0,-0.66 0,-1.32 0,-2 1.25812,-0.28875 2.51625,-0.5775 3.8125,-0.875 3.04144,-0.698035 4.4942,-1.329466 7.1875,-3.125 1.00169,-1.948329 1.00169,-1.948329 1.6875,-4.125 0.25137,-0.724453 0.50273,-1.448906 0.76172,-2.195313 0.18176,-0.554296 0.36351,-1.108593 0.55078,-1.679687 z"
       fill="#ae8fdf"
       id="path45" />
    <path
       d="m 578.83803,284.65822 c 0.99,0.66 1.98,1.32 3,2 0.24878,2.33838 0.24878,2.33838 0.0742,5.22656 -0.0548,1.03125 -0.10957,2.0625 -0.16602,3.125 -0.0728,1.08024 -0.14566,2.16047 -0.2207,3.27344 -0.0612,1.08797 -0.12246,2.17594 -0.18555,3.29687 -0.15359,2.69383 -0.32148,5.386 -0.50195,8.07813 -0.99,-0.66 -1.98,-1.32 -3,-2 0.66,0 1.32,0 2,0 0,-1.98 0,-3.96 0,-6 -2.78392,1.39196 -2.97899,3.15576 -4,6 -0.33,0 -0.66,0 -1,0 0.79264,-7.76783 2.4189,-15.36296 4,-23 z"
       fill="#ad8be2"
       id="path67" />
    <path
       d="m 697.83803,6.6582179 c 0.55172,0.470508 1.10344,0.941016 1.67187,1.425781 2.59465,1.75443 4.5094,2.2368051 7.57813,2.7617191 0.89203,0.158555 1.78406,0.317109 2.70312,0.480469 0.67547,0.10957 1.35094,0.21914 2.04688,0.332031 -2.33685,2.336849 -3.25844,2.337468 -6.4375,2.8125 -3.73525,0.773597 -3.73525,0.773597 -6.5625,3.3125 -0.87169,2.506105 -1.26799,4.516454 -1.5625,7.125 -0.14438,1.2375 -0.28875,2.475 -0.4375,3.75 -0.66,0.33 -1.32,0.66 -2,1 -0.33,-3.96 -0.66,-7.92 -1,-12 0.99,0 1.98,0 3,0 0,-0.66 0,-1.32 0,-2 0.66,0 1.32,0 2,0 0,-0.66 0,-1.32 0,-2 0.66,0 1.32,0 2,0 0,-0.99 0,-1.98 0,-3 -1.32,0 -2.64,0 -4,0 0.33,-1.3200001 0.66,-2.6400001 1,-4.0000001 z"
       fill="#af92db"
       id="path69" />
    <path
       d="m 522.83803,274.65822 c 0.99,0.33 1.98,0.66 3,1 -0.56546,3.95821 -1.80902,6.66591 -4,10 -0.66,-0.33 -1.32,-0.66 -2,-1 -1.67519,0.5584 -3.34663,1.12999 -5,1.75 -0.66,0.0825 -1.32,0.165 -2,0.25 -1.75,-1.4375 -1.75,-1.4375 -3,-3 2.97,0.495 2.97,0.495 6,1 0.22687,-0.53625 0.45375,-1.0725 0.6875,-1.625 1.74632,-3.16001 3.95278,-5.6427 6.3125,-8.375 z"
       fill="#ac8cdf"
       id="path76" />
    <path
       d="m 629.83803,27.658218 c 0.66,0.99 1.32,1.98 2,3 3.55672,1.218812 3.55672,1.218812 7,2 0,0.33 0,0.66 0,1 -2.31,0.66 -4.62,1.32 -7,2 -0.33,1.65 -0.66,3.3 -1,5 -0.66,-0.66 -1.32,-1.32 -2,-2 0,-1.32 0,-2.64 0,-4 -2.64,-0.33 -5.28,-0.66 -8,-1 3,-2 3,-2 5.0625,-2.4375 2.32808,-0.450267 2.32808,-0.450267 3.9375,-3.5625 z"
       fill="#bdaad9"
       id="path84" />
    <path
       d="m 652.83803,-9.3417821 c 0.55687,0.474375 1.11375,0.94875 1.6875,1.4375 2.49596,1.68646 4.35712,2.1520311 7.3125,2.5625 -0.59813,0.268125 -1.19625,0.53625 -1.8125,0.8125 -2.23078,1.0768979 -2.23078,1.0768979 -3.8125,2.8125 -0.45375,0.45375 -0.9075,0.90749998 -1.375,1.37499998 -0.66,0 -1.32,0 -2,0 -0.43313,-0.474375 -0.86625,-0.94874998 -1.3125,-1.43749998 -2.13444,-1.9763309 -3.85058,-2.1791324 -6.6875,-2.5625 0,-0.33 0,-0.66 0,-1 1.13437,-0.28875 2.26875,-0.5775 3.4375,-0.875 1.17562,-0.37125 2.35125,-0.7425 3.5625,-1.125 0.33,-0.66 0.66,-1.32 1,-2 z"
       fill="#b5a0d2"
       id="path91" />
    <path
       d="m 577.83803,301.65822 c 0.66,0 1.32,0 2,0 -0.0206,1.0725 -0.0412,2.145 -0.0625,3.25 0.0483,2.8979 0.19406,5.03612 1.0625,7.75 -1.65,0 -3.3,0 -5,0 -1.13644,-3.40932 -0.86748,-4.00335 0.4375,-7.1875 0.43119,-1.07314 0.43119,-1.07314 0.87109,-2.16797 0.22817,-0.54269 0.45633,-1.08539 0.69141,-1.64453 z"
       fill="#b186ef"
       id="path97" />
    <path
       d="m 388.83803,137.65822 c 0.33,0.99 0.66,1.98 1,3 -0.99,0.33 -1.98,0.66 -3,1 0.33,0.99 0.66,1.98 1,3 -0.88687,0.39187 -1.77375,0.78375 -2.6875,1.1875 -3.4338,1.87887 -5.67792,3.94546 -8.3125,6.8125 -0.66,-0.33 -1.32,-0.66 -2,-1 4.62,-4.62 9.24,-9.24 14,-14 z"
       fill="#b396d9"
       id="path100" />
    <path
       d="m 721.83803,57.658218 c 0.99,0.33 1.98,0.66 3,1 -0.66,1.32 -1.32,2.64 -2,4 0.33,0.33 0.66,0.66 1,1 0.33,0.66 0.66,1.32 1,2 -0.66,0 -1.32,0 -2,0 -0.33,0.66 -0.66,1.32 -1,2 -1.32,-0.99 -2.64,-1.98 -4,-3 0.3125,-2.375 0.3125,-2.375 1,-5 0.99,-0.66 1.98,-1.32 3,-2 z"
       fill="#af87ec"
       id="path101" />
    <path
       d="m 579.83803,140.65822 c 1.23594,3.70782 0.56781,4.6751 -0.9375,8.1875 -0.38027,0.90105 -0.76055,1.80211 -1.15234,2.73047 -0.45053,1.0306 -0.45053,1.0306 -0.91016,2.08203 -0.33,0 -0.66,0 -1,0 0.59453,-9.59453 0.59453,-9.59453 4,-13 z"
       fill="#b091db"
       id="path137" />
    <path
       d="m 422.83803,105.65822 c 0.66,0.33 1.32,0.66 2,1 -0.8125,2.4375 -0.8125,2.4375 -2,5 -0.99,0.33 -1.98,0.66 -3,1 0,-4 0,-4 1.5,-5.75 0.495,-0.4125 0.99,-0.825 1.5,-1.25 z"
       fill="#ac8ade"
       id="path146" />
    <path
       d="m 477.83803,247.65822 c 0.99,0 1.98,0 3,0 -0.33,1.32 -0.66,2.64 -1,4 -1.65,0.33 -3.3,0.66 -5,1 1.875,-3.875 1.875,-3.875 3,-5 z"
       fill="#b287ec"
       id="path155" />
    <path
       d="m 378.83803,149.65822 c 0.66,0 1.32,0 2,0 0,0.66 0,1.32 0,2 0.99,-0.33 1.98,-0.66 3,-1 2.00875,0.27571 4.01179,0.60236 6,1 0,0.33 0,0.66 0,1 -4.29,0 -8.58,0 -13,0 0.66,-0.99 1.32,-1.98 2,-3 z"
       fill="#ae8ae0"
       id="path156" />
  </g>
</svg>
