<?xml version="1.0" encoding="UTF-8" standalone="no"?>
<svg
   version="1.1"
   width="361.00003"
   height="323.00003"
   id="svg169"
   xmlns="http://www.w3.org/2000/svg"
   xmlns:svg="http://www.w3.org/2000/svg">
  <defs
     id="defs169" />
  <path
     d="m -239.29477,-242.12009 c 124.08,0 248.1600007,0 376,0 0,0.33 0,0.66 0,1 -0.91362,0.095 -1.82725,0.18998 -2.76855,0.28785 -37.577519,3.96035 -72.256939,11.49573 -108.029789,23.63037 -3.44515,1.16405 -6.89761,2.30425 -10.35547,3.42993 -1.95483,0.69021 -3.82837,1.49479 -5.7211903,2.33935 -3.125,1.3125 -3.125,1.3125 -6.125,1.3125 0,0.66 0,1.32 0,2 -3.46499999,0.495 -3.46499999,0.495 -7,1 0,0.66 0,1.32 0,2 -0.63164,0.27973 -1.26328,0.55946 -1.91406,0.84766 -37.5954197,16.84752 -71.1244997,40.62125 -101.2695307,68.55859 -2.67758,2.4659 -5.39753,4.87533 -8.12891,7.28125 -3.64734,3.26862 -6.89705,6.68394 -10.05078,10.42578 -1.59288,1.83618 -3.26184,3.51341 -5.01172,5.19922 -3.73015,3.67199 -6.97463,7.67629 -10.25,11.75391 -2.34647,2.898353 -4.76265,5.725713 -7.1875,8.558593 -15.16591,18.1944 -27.43994,38.67766 -38.99683,59.28052 -0.95675,1.683 -1.95241,3.34387 -2.9602,4.99682 -1.51874,2.5891 -2.36427,5.23253 -3.23047,8.09766 -0.66,0 -1.32,0 -2,0 -0.1173,0.70641 -0.23461,1.41281 -0.35547,2.14062 -0.69058,3.06366 -1.72366,5.72261 -2.95703,8.6093803 -0.40863,0.96422 -0.81727,1.92844 -1.23828,2.92187 -0.77324,1.77575 -1.55056,3.54991 -2.35547,5.31153 -7.73302,17.0019497 -13.34155,34.9800897 -18.09375,53.0165997 -0.28351,1.07169 -0.28351,1.07169 -0.57275,2.16504 -1.03596,3.95104 -2.01808,7.91214 -2.95948,11.88672 -0.46908,1.95369 -0.96378,3.89971 -1.45996,5.84668 -2.4338,9.87427 -3.90066,19.8382 -5.19531,29.914057 -0.16693,1.29881 -0.33387,2.59762 -0.50586,3.93579 -7.39289,59.71736 -0.37597,119.33248 18.69336,176.25171 0.29052,0.86883 0.58105,1.73766 0.88037,2.63281 0.90501,2.68838 1.8219,5.37234 2.74463,8.05469 0.27707,0.81364 0.55414,1.62728 0.8396,2.46558 1.57884,4.51677 3.40764,8.73926 5.60718,12.98681 1.3532,2.71175 2.3865,5.51648 3.42822,8.36011 2.82132,7.45756 6.03646,14.0652 10.54688,20.64062 0.95312,1.85938 0.95312,1.85938 0.95312,5.85938 0.66,0 1.32,0 2,0 0.51047,1.01836 1.02094,2.03672 1.54688,3.08594 12.2641,24.05087 28.71718,45.63587 46.45312,65.91406 0.63035,0.72961 1.2607,1.45922 1.91016,2.21094 1.68409,1.94111 3.38521,3.86598 5.08984,5.78906 0.61488,0.7077 1.22977,1.41539 1.86328,2.14453 4.87872,5.54024 9.99011,10.814 15.19922,16.04297 0.66056,0.66516 1.32113,1.33031 2.00171,2.01562 4.48247,4.46859 9.14025,8.66864 13.935791,12.79688 1.05984,0.93739 2.11851,1.87611 3.17578,2.81641 19.65318,17.29953 41.56271,32.34353 64.91651,44.19873 2.07366,1.07053 4.12167,2.18202 6.16943,3.30127 56.92296,30.94864 120.53559,46.04565 185.113279,46.05859 1.5249,0.003 1.5249,0.003 3.0806,0.006 18.32838,-0.004 36.5743,-1.09223 54.6694,-4.13077 1.01949,-0.16846 2.03897,-0.33693 3.08936,-0.5105 61.69349,-10.49121 121.39752,-34.26357 171.78564,-71.73973 1.51594,-1.10408 1.51594,-1.10408 3.0625,-2.23047 7.60633,-5.5958 14.79674,-11.60037 21.9375,-17.76953 0.71801,-0.61617 1.43602,-1.23234 2.17578,-1.86719 12.3147,-10.65744 24.24665,-21.72859 34.82422,-34.13281 0.8482,-0.95906 1.69641,-1.91813 2.57031,-2.90625 32.72465,-37.17364 57.2818,-80.78702 74.42969,-127.09375 0.57259,-1.5302 0.57259,-1.5302 1.15674,-3.09131 5.35236,-14.39921 9.48476,-28.9226 12.84326,-43.90869 0.34225,-1.51183 0.34225,-1.51183 0.69141,-3.0542 3.61375,-16.21284 5.71862,-32.4229 7.30859,-48.9458 0.0829,-0.73656 0.16585,-1.47313 0.25128,-2.23201 0.66566,-6.08939 0.92218,-12.10148 0.95184,-18.22502 0.007,-0.97301 0.0139,-1.94602 0.0211,-2.94852 0.0173,-3.13569 0.0237,-6.27121 0.0258,-9.40695 10e-4,-1.07307 0.002,-2.14615 0.003,-3.25174 -0.0109,-17.19164 -0.77699,-33.90483 -3.25302,-50.93576 -0.14454,-1.060417 -0.28907,-2.120827 -0.43799,-3.213377 -4.28139,-31.19301 -12.74397,-61.45514 -24.43701,-90.6616197 -0.34515,-0.86279 -0.69029,-1.72557 -1.0459,-2.6145 -2.80479,-6.95035 -5.86473,-13.7394 -9.0791,-20.5105003 -0.79853,-1.72601 -1.59093,-3.45487 -2.375,-5.1875 -0.31711,-0.6948 -0.63422,-1.38961 -0.96094,-2.10547 -0.66406,-1.70703 -0.66406,-1.70703 -0.66406,-3.70703 -0.66,0 -1.32,0 -2,0 -0.47438,-1.155 -0.94875,-2.31 -1.4375,-3.5 -12.61444,-28.04654 -32.10232,-53.71365 -52.5625,-76.500003 -0.48404,-0.54189 -0.96809,-1.08378 -1.4668,-1.64209 -6.22488,-6.94428 -12.70433,-13.624 -19.2832,-20.23291 -0.69706,-0.70173 -1.39412,-1.40347 -2.1123,-2.12646 -7.91784,-7.89343 -16.4356,-14.98976 -25.1377,-21.99854 -0.52336,-0.42297 -1.04672,-0.84594 -1.58594,-1.28173 -18.24199,-14.70161 -37.98121,-29.52211 -59.22656,-39.59327 -3.13324,-1.53046 -6.04982,-3.26713 -9,-5.125 -4.38487,-2.68641 -8.76051,-4.46305 -13.64453,-6.04297 -2.74841,-1.03434 -5.03572,-2.43821 -7.54297,-3.95703 -2.08402,-0.82985 -2.08402,-0.82985 -4.1875,-1.4375 -4.07493,-1.29565 -8.01217,-2.80873 -11.97339,-4.41528 -0.93691,-0.37858 -1.87381,-0.75716 -2.83911,-1.14722 -1.383,-0.55929 -1.383,-0.55929 -2.79395,-1.12988 -8.60535,-3.39838 -17.31919,-6.20315 -26.20605,-8.74512 -0.74789,-0.21399 -1.49578,-0.42799 -2.26633,-0.64846 -28.84474,-8.17462 -57.85183,-12.53892 -87.73367,-14.47654 0,-0.33 0,-0.66 0,-1 124.41,0 248.82,0 377,0 0,263.010003 0,526.02 0,797 -263.67,0 -527.339999,0 -799,0 0,-263.01 0,-526.019997 0,-797 z"
     fill="#fefefe"
     id="path2" />
  <path
     d="m 275.76773,-225.99509 c 0.86691,0.25354 1.73381,0.50707 2.62698,0.76828 8.78456,2.59167 17.36777,5.33485 25.77366,9.0037 4.25666,1.85079 8.62675,3.38878 12.99584,4.95068 3.79748,1.38978 7.10977,3.03016 10.54102,5.15234 1.56912,0.65987 3.15318,1.28533 4.75,1.875 4.25529,1.65414 8.14154,3.62704 12.09375,5.90235 2.62849,1.49043 5.31814,2.82072 8.03906,4.13281 19.51144,10.04371 38.44809,22.86976 55.11719,37.08984 1.85203,1.50264 3.70624,3.0026 5.5625,4.5 4.40216,3.59949 8.65885,7.32758 12.85547,11.16407 1.423,1.28737 2.85254,2.56804 4.30884,3.81762 5.70497,4.90011 11.0314,10.12754 16.33569,15.45581 1.28874,1.28294 1.28874,1.28294 2.60352,2.5918 4.98716,4.99478 9.75537,10.10047 14.33398,15.4707 0.85723,0.97582 1.71445,1.95164 2.59766,2.95703 15.22002,17.632083 27.9315,36.899473 39.96484,56.792973 0.51321,0.84619 1.02642,1.69238 1.55518,2.56421 5.88232,9.82667 5.88232,9.82667 5.88232,14.68579 0.66,0 1.32,0 2,0 1.37428,3.01099 2.7428,6.02457 4.10937,9.03906 0.63662,1.40168 1.27482,2.80264 1.91407,4.20313 15.50857,33.98686 26.87401,68.96529 32.72656,105.94531 0.19868,1.24451 0.39735,2.48902 0.60205,3.77124 2.76456,18.298887 3.98603,36.499007 3.90869,55.000237 -0.0107,3.03992 -10e-6,6.07925 0.0127,9.11914 0.013,17.46206 -1.13029,34.81001 -4.02344,52.04688 -0.16701,1.01441 -0.33403,2.02882 -0.5061,3.07397 -2.95299,17.40951 -6.2458,34.93999 -12.01929,51.65943 -0.84501,2.49744 -1.63631,5.00949 -2.42774,7.52441 -16.03342,50.38123 -42.39559,97.83662 -77.29687,137.61719 -0.59813,0.69738 -1.19625,1.39477 -1.8125,2.11328 -11.22472,13.03255 -23.03536,25.78306 -36.1875,36.88672 -0.96551,0.83145 -1.93102,1.66289 -2.92578,2.51953 -38.66407,33.19875 -83.20284,58.15907 -131.07422,75.48047 -1.20632,0.444 -1.20632,0.444 -2.43701,0.89697 -39.06307,14.28381 -81.5327,20.53279 -123.00415,20.36377 -3.12333,-0.0108 -6.24608,-1e-5 -9.36939,0.0127 -18.52254,0.0142 -36.65148,-1.62219 -54.93945,-4.52344 -0.67455,-0.10671 -1.349099,-0.21342 -2.044099,-0.32336 -30.27294,-4.83152 -60.06235,-13.22336 -88.2059,-25.42664 -0.8279003,-0.35562 -1.6558003,-0.71124 -2.5087903,-1.07764 -11.09312,-4.78953 -21.8374597,-10.04907 -32.4453097,-15.82812 -1.99683,-1.068 -4.01075,-2.08945 -6.03809,-3.09815 -17.38274,-8.73125 -33.78785,-19.9006 -49.00781,-31.99609 -0.90105,-0.71027 -1.80211,-1.42055 -2.73047,-2.15234 -5.97512,-4.79527 -11.64724,-9.85543 -17.25,-15.07422 -2.228541,-2.07063 -4.511051,-4.06616 -6.816401,-6.05078 -4.61902,-4.02597 -8.94545,-8.31799 -13.26563,-12.66016 -1.14565,-1.13985 -1.14565,-1.13985 -2.31445,-2.30273 -4.74848,-4.7566 -9.2559,-9.65252 -13.62305,-14.75977 -0.84562,-0.96422 -1.69125,-1.92844 -2.5625,-2.92188 -7.68769,-8.91969 -14.74309,-18.27272 -21.72168,-27.7539 -1.47887,-2.00326 -2.9725,-3.9939 -4.47363,-5.98047 -5.12187,-6.86439 -9.53631,-14.04347 -13.80469,-21.46875 -0.52553,-0.91386 -1.05107,-1.82773 -1.59253,-2.76929 -4.03741,-7.15926 -4.03741,-7.15926 -4.84497,-11.10571 -0.66,0 -1.32,0 -2,0 -0.58781,-1.45406 -0.58781,-1.45406 -1.1875,-2.9375 -1.22372,-2.87259 -2.62454,-5.5481 -4.1875,-8.25 -3.0564,-5.39903 -5.31054,-11.06601 -7.625,-16.8125 -0.85176,-2.04267 -1.7059,-4.08435 -2.5625,-6.125 -5.81928,-13.98446 -10.9644,-28.07103 -15.375,-42.5625 -0.21971,-0.72149 -0.43943,-1.44298 -0.6658,-2.18634 -3.90771,-12.90874 -7.05364,-25.83632 -9.3967,-39.12616 -0.14486,-0.79374 -0.28972,-1.58748 -0.43896,-2.40527 -0.84081,-4.65448 -1.5674,-9.31489 -2.20508,-14.00147 -0.24557,-1.78902 -0.50315,-3.57641 -0.77051,-5.3623 -4.96559,-33.77383 -4.46031,-69.47959 0.41455,-103.230957 0.15517,-1.08088 0.31034,-2.16176 0.47021,-3.27539 1.02567,-6.93814 2.20939,-13.83675 3.52979,-20.72461 0.22575,-1.18844 0.22575,-1.18844 0.45605,-2.40088 5.74445,-29.54016 14.98475,-63.6671297 30.54395,-89.59912 0.69579,-2.19131 0.69579,-2.19131 1,-4 0.66,0 1.32,0 2,0 0.19723,-1.0841 0.39445,-2.1682 0.59766,-3.28516 1.49859,-5.95905 4.69743,-10.92789 7.83984,-16.15234 0.62963,-1.06042 1.25925,-2.12083 1.90796,-3.21338 11.55646,-19.34906 23.98507,-38.19453 38.65454,-55.34912 0.495,-0.58378 0.99,-1.16757 1.5,-1.76904 5.94237,-7.001213 11.92553,-13.848673 18.51953,-20.250493 1.95862,-1.95862 3.75251,-3.99313 5.54297,-6.10547 2.81218,-3.26699 5.80653,-6.06225 9.09375,-8.84375 2.33369,-2.02252 4.58324,-4.12116 6.82959,-6.23974 6.647321,-6.25129 13.583751,-11.96379 20.834961,-17.49756 1.56397,-1.20516 3.10504,-2.43988 4.64404,-3.67676 20.25614,-16.13037 43.26526,-30.26485 66.9101597,-40.86719 1.10988,-0.50273 1.10988,-0.50273 2.24219,-1.01562 1.88281,-0.73438 1.88281,-0.73438 3.88281,-0.73438 0,-0.66 0,-1.32 0,-2 3.46500001,-0.495 3.46500001,-0.495 7,-1 0,-0.66 0,-1.32 0,-2 0.825,-0.29132 1.65,-0.58265 2.5,-0.88281 1.155,-0.40992 2.31,-0.81984 3.5,-1.24219 0.6330103,-0.22445 1.2660203,-0.44891 1.9182103,-0.68017 3.89677,-1.38983 7.76366,-2.83935 11.62061,-4.33716 10.09541,-3.89563 20.4058,-6.99038 30.77954,-10.05249 2.32688,-0.69866 4.63824,-1.42904 6.94727,-2.18408 13.28134,-4.27847 26.9649,-6.52009 40.734369,-8.6211 1.95293,-0.30067 1.95293,-0.30067 3.94531,-0.60742 56.95896,-8.55291 115.01425,-3.40417 170.11719,12.73242 z M 48.989901,-219.853 c -2.76887,0.88824 -5.55395,1.71194 -8.34326,2.53369 -1.05381,0.31212 -2.10762,0.62423 -3.19336,0.94581 -2.09742,0.61951 -4.19635,1.23391 -6.29688,1.84277 -0.95197,0.28375 -1.90394,0.56751 -2.88476,0.85986 -0.85651,0.25097 -1.71301,0.50193 -2.59546,0.7605 -2.15858,0.61243 -2.15858,0.61243 -2.97095,2.79028 -2.76276,0.99161 -5.50885,1.89041 -8.3125,2.75 -7.6536703,2.45116 -14.58747029,5.47006 -21.6875003,9.25 -1.80224,0.87109 -3.6045797,1.74195 -5.4089397,2.60865 -32.76293,15.89529 -62.40362,37.81979 -89.251221,62.27417 -1.55534,1.40734 -3.12575,2.79822 -4.71093,4.17187 -4.27781,3.70791 -8.10778,7.49981 -11.75782,11.82422 -2.14404,2.4305 -4.42604,4.67074 -6.74609,6.93359 -5.13498,5.08851 -9.65216,10.515913 -14.125,16.187503 -0.84969,1.05905 -1.69997,2.11763 -2.55078,3.17578 -12.42568,15.5321 -23.5057,31.59342 -33.44922,48.82422 -0.40122,0.69207 -0.80244,1.38413 -1.21582,2.09717 -2.28864,3.95247 -4.54401,7.92263 -6.78418,11.90283 -0.49242,0.86109 -0.98484,1.72219 -1.49219,2.60937 -2.47869,4.37072 -4.58351,8.74024 -6.50781,13.39063 -1.1957,2.6589103 -2.40776,5.3100303 -3.62109,7.9609403 -0.45504,1.00289 -0.91008,2.00578 -1.37891,3.03906 -0.45077,0.95109003 -0.45077,0.95109003 -0.91064,1.92139003 -2.9288,6.31971997 -5.03398,12.80574967 -7.08936,19.45360967 -1.88999,6.06864 -3.77695,12.10865 -6.02734,18.05469 -2.33323,6.32033 -3.9398,12.78111 -5.53516,19.32031 -0.29068,1.16016 -0.58137,2.32031 -0.88086,3.51562 -3.60974,14.60048 -6.10855,28.99009 -7.68164,43.921877 -0.25256,2.35486 -0.50707,4.70948 -0.76462,7.0638 -0.15793,1.44764 -0.31283,2.89562 -0.46417,4.34396 -0.53941,5.00109 -0.53941,5.00109 -1.16222,7.35495 -0.50867,2.15432 -0.63089,4.06398 -0.66099,6.27538 -0.0126,0.83308 -0.0253,1.66617 -0.0383,2.5245 -0.008,0.90232 -0.0152,1.80463 -0.0229,2.73428 -0.01,0.95138 -0.0195,1.90276 -0.0295,2.88297 -0.41033,50.77191 6.98026,96.98937 21.95532,145.39438 0.20238,0.65876 0.40477,1.31752 0.61328,1.99625 1.29035,4.1347 2.80464,8.04983 4.66406,11.95687 1.81323,4.00279 3.27074,8.14766 4.78907,12.26953 1.19384,2.88917 2.63577,5.34405 4.24609,8.01563 1.01793,2.32557 2.01728,4.65934 3,7 13.18829,27.88082 30.03075,53.49453 50,77 0.89598,1.07019 1.7918,2.14051 2.6875,3.21094 13.04208,15.48967 26.88888,30.63977 42.312501,43.78906 1.03997,0.91434 2.07895,1.8298 3.11719,2.74609 7.41381,6.50445 15.04312,12.43006 23.15039,18.04053 1.71481,1.20105 3.40569,2.42944 5.0918,3.67041 8.58362,6.29747 17.51025,11.89203 26.64794,17.34912 1.73468,1.03928 3.46022,2.09377 5.18409,3.15088 1.29744,0.79471 1.29744,0.79471 2.62109,1.60547 0.7077,0.43441 1.41539,0.86883 2.14453,1.31641 3.40271,1.86726 6.13047,3.12109 10.04297,3.12109 0,0.66 0,1.32 0,2 0.78504,0.31453 1.57008,0.62906 2.37891,0.95312 1.57588,0.64196 1.57588,0.64196 3.1835897,1.29688 1.03254,0.41766 2.06508,0.83531 3.12891,1.26562 2.96661,1.33095 5.69588001,2.86714 8.49829,4.50733 3.04097,1.64126 6.24699,2.76222 9.4978003,3.91455 4.8477,1.76285 9.6357,3.58286 14.375,5.625 6.85031,2.88337 13.84535,5.23449 20.9375,7.4375 0.7483,0.23332 1.4966,0.46664 2.26758,0.70703 22.09607,6.80159 44.77193,11.60834 67.732419,14.29297 0.79326,0.10296 1.58651,0.20593 2.40381,0.31201 42.91169,5.47975 87.45324,1.74534 129.59619,-7.31201 0.84595,-0.1758 1.6919,-0.35159 2.56348,-0.53271 65.52796,-13.85608 128.56331,-49.44976 177.01074,-95.14307 2.05573,-1.90929 4.1826,-3.73475 6.30078,-5.57422 10.68523,-9.58708 20.23336,-20.50698 29.125,-31.75 0.93974,-1.1498 1.88126,-2.29815 2.82422,-3.44531 7.24458,-8.85657 13.85305,-18.02158 20.17578,-27.55469 0.38221,-0.57009 0.76441,-1.14018 1.1582,-1.72754 19.04173,-28.46184 33.36863,-59.10527 44.8418,-91.27246 0.60007,-1.63549 1.20031,-3.27091 1.80078,-4.90625 4.21142,-11.74999 6.88287,-23.85987 9.53076,-36.04199 0.58959,-2.69169 1.20291,-5.3761 1.82862,-8.05957 9.30863,-40.71502 10.44238,-86.78712 3.83984,-127.99219 -0.19868,-1.302277 -0.39735,-2.604547 -0.60205,-3.946287 -5.74648,-37.44158 -16.0777,-73.95867 -32.64795,-108.11621 -0.88178,-1.82346 -1.76206,-3.64764 -2.64063,-5.47266 -0.38188,-0.78769 -0.76376,-1.57539 -1.15722,-2.38696 -0.95215,-2.07788 -0.95215,-2.07788 -1.95215,-5.07788 -0.66,0 -1.32,0 -2,0 -0.30938,-1.155 -0.61875,-2.31 -0.9375,-3.5 -7.21592,-21.31674 -23.4077,-40.93203 -37.0625,-58.5 -0.72832,-0.9423 -1.45664,-1.88461 -2.20703,-2.85547 -3.94878,-5.02359 -8.10816,-9.81406 -12.42188,-14.527343 -1.907,-2.10494 -3.76725,-4.23558 -5.62109,-6.38672 -3.88393,-4.448 -8.002,-8.63007 -12.1875,-12.79297 -0.71221,-0.71607 -1.42441,-1.43215 -2.1582,-2.16992 -4.63753,-4.6291 -9.42886,-9.00593 -14.4043,-13.26758 -1.12947,-0.98503 -2.2584,-1.97068 -3.38672,-2.95703 -20.69978,-17.95932 -43.10063,-33.03305 -66.6134,-47.04297 -0.91008,-0.55687 -1.82016,-1.11375 -2.75781,-1.6875 -2.27142,-1.32961 -4.59444,-2.29544 -7.02344,-3.29687 -2.98534,-1.36653 -5.83718,-2.94266 -8.71875,-4.51563 -6.9677,-3.78541 -13.97664,-6.69288 -21.42993,-9.35424 -2.861,-1.06773 -5.63959,-2.24381 -8.43726,-3.46607 -7.36853,-3.08482 -14.92594,-5.402 -22.57031,-7.67969 -0.72383,-0.21755 -1.44766,-0.4351 -2.19342,-0.65924 -11.1045,-3.33285 -22.22985,-6.38837 -33.56732,-8.8349 -2.26752,-0.49833 -4.52223,-1.03651 -6.77832,-1.58398 -14.32758,-3.37677 -28.88156,-4.65468 -43.52344,-5.92188 -1.20922,-0.11021 -1.20922,-0.11021 -2.44287,-0.22265 -4.84908,-0.43032 -9.692,-0.65778 -14.55713,-0.77735 -1.07395,-0.0272 -2.1479,-0.0545 -3.25439,-0.0825 -42.05801,-0.89317 -85.376979,3.04068 -125.460939,16.34961 z"
     fill="#141414"
     id="path4" />
  <path
     d="m -89.294769,252.87991 c 1.32,0 2.64,0 4,0 0.340312,0.74121 0.680625,1.48243 1.03125,2.2461 0.761723,1.65512 1.52399,3.31001 2.293213,4.96167 1.481743,3.18339 2.934215,6.37391 4.327881,9.59692 10.529947,23.91608 25.997284,45.70124 43.945312,64.61719 1.73757,1.86471 3.362105,3.72125 4.96875,5.6914 2.008816,2.38285 3.925684,4.34176 6.308594,6.32422 2.603813,2.17348 5.002196,4.44885 7.363281,6.87891 3.753962,3.7825 7.8135917,6.9939 12.0742187,10.18359 0.750557,0.56678 1.501113,1.13357 2.27441401,1.71753 5.38702099,4.0519 10.78604329,8.06771 16.41308629,11.78247 1.32838,0.87785 1.32838,0.87785 2.68359,1.77344 7.15212,4.55726 14.55482,8.54789 22.06641,12.47656 0.97026,0.50749 1.94052,1.01498 2.94019,1.53784 8.6607,4.48024 17.4007,8.37135 26.55981,11.71216 0.83064,0.30333 1.66128,0.60667 2.51709,0.91919 14.9448,5.40935 30.337489,10.18648 46.232909,11.58081 0.66,0.33 1.32,0.66 2,1 13.0657,1.81237 26.08727,2.32063 39.26392,2.26074 2.80092,-0.0108 5.6012,0 8.4021,0.0127 15.00586,0.012 30.04547,-0.81886 44.77148,-3.89844 0.80035,-0.16621 1.60069,-0.33242 2.42529,-0.50366 33.08341,-7.17648 66.19936,-19.37981 94.13721,-38.87134 0.65533,-0.45601 1.31065,-0.91201 1.98584,-1.38184 18.39769,-12.8658 36.67945,-27.20705 51.01416,-44.61816 0.79148,-0.89203 1.58297,-1.78406 2.39844,-2.70312 8.0867,-9.16276 14.90537,-19.08902 21.60156,-29.29688 0.38785,-0.58749 0.77569,-1.17498 1.17529,-1.78027 9.02386,-13.77527 17.0425,-28.78985 22.82471,-44.21973 1.32,0 2.64,0 4,0 -0.6687,4.37999 -2.21462,8.22721 -4,12.25 -0.3076,0.69529 -0.61521,1.39058 -0.93213,2.10694 -5.9351,13.18943 -12.92113,25.69816 -21.06787,37.64306 -0.393,0.57847 -0.78601,1.15694 -1.19092,1.75293 -6.0808,8.88714 -12.71454,17.15256 -19.80908,25.24707 -0.70383,0.81598 -1.40766,1.63196 -2.13281,2.47266 -10.31854,11.75057 -21.42643,23.03174 -33.86719,32.52734 -1.17611,0.92797 -2.35187,1.85639 -3.52734,2.78516 -21.47502,16.75078 -45.93162,29.84979 -71.47266,39.21484 -1.0248,0.44086 -1.0248,0.44086 -2.07031,0.89062 -12.2654,5.23878 -25.34769,8.11901 -38.36719,10.79688 -0.96237,0.2023 -1.92473,0.4046 -2.91626,0.61304 -16.62031,3.29714 -33.24282,4.07911 -50.14624,4.01196 -1.43668,-0.003 -1.43668,-0.003 -2.90237,-0.006 -52.23696,-0.16623 -105.758649,-14.36723 -148.597629,-45.3065 -1.121113,-0.77659 -2.2435863,-1.55123 -3.3671883,-2.32422 -7.70759899,-5.34516 -14.950079,-11.08345 -22.0109857,-17.25903 -1.161539,-1.01467 -2.328708,-2.0229 -3.499512,-3.02686 -4.930666,-4.25215 -9.595123,-8.71099 -14.184814,-13.32739 -0.668379,-0.66451 -1.336758,-1.32902 -2.025391,-2.01367 -6.779915,-6.79309 -12.995232,-13.9122 -18.724609,-21.61133 -0.512805,-0.68763 -1.02561,-1.37527 -1.553955,-2.08374 -5.139805,-6.9503 -9.981201,-14.06955 -14.633545,-21.35376 -0.565818,-0.87809 -0.565818,-0.87809 -1.143066,-1.77392 -19.856934,-31.04637 -19.856934,-31.04637 -19.856934,-42.22608 z"
     fill="#191919"
     id="path7" />
  <path
     d="m 226.70523,-110.12009 c 1.51218,0.41197 3.02511,0.82117 4.53906,1.22657 12.81811,3.49745 25.15088,7.78321 37.46094,12.773433 0.71495,0.284561 1.42989,0.569121 2.1665,0.862305 11.5748,4.636564 22.18063,10.688839 32.8335,17.137695 1.52754,0.910723 1.52754,0.910723 3.08594,1.839844 38.36303,23.559281 68.66173,56.961501 91.85156,95.160156 0.36569,0.59885 0.73138,1.1977 1.10815,1.8147 2.36295,3.95518 4.22287,7.92988 5.95435,12.1853 -1.65,0 -3.3,0 -5,0 -0.4241,-0.81082 -0.8482,-1.62164 -1.28516,-2.45703 -9.84555,-18.58754 -21.78126,-35.7910397 -35.71484,-51.54297 -0.73605,-0.846914 -1.47211,-1.693828 -2.23047,-2.566406 -9.44766,-10.721117 -19.47533,-20.663239 -30.76953,-29.433594 -1.00547,-0.799219 -2.01094,-1.598438 -3.04687,-2.421875 -8.01491,-6.325351 -16.36288,-12.064452 -24.95313,-17.578125 -0.86109,-0.554297 -1.72219,-1.108594 -2.60937,-1.679688 -13.67768,-8.491172 -28.40817,-14.567788 -43.39063,-20.320312 0,-0.66 0,-1.32 0,-2 -0.93457,-0.09668 -1.86914,-0.193359 -2.83203,-0.292969 -5.12729,-0.733938 -9.93966,-2.43546 -14.85547,-4.019534 -10.68426,-3.32923 -21.27534,-5.87006 -32.3125,-7.6875 -1.28173,-0.22429 -1.28173,-0.22429 -2.58935,-0.45312 -13.67233,-2.33191 -27.20034,-2.81361 -41.03565,-2.79688 -0.80838,6.9e-4 -1.61677,0.001 -2.44965,0.002 -14.64023,0.0409 -28.88996,0.76764 -43.30035,3.56043 -1.17683,0.22438 -2.35367,0.44875 -3.56616,0.67993 -19.277829,3.73508 -38.137859,8.85984 -56.058839,17.007563 -1.20004,0.542856 -1.20004,0.542856 -2.42432,1.09668 -38.82087,17.68576 -75.72521,43.436021 -101.57568,77.90332 -0.41766,0.546562 -0.83531,1.093125 -1.26562,1.65625 -10.46585,13.7138703 -19.32139,28.30377 -27.73438,43.34375 -1.32,0 -2.64,0 -4,0 4.09078,-20.35988 24.38566,-42.7437097 38,-58 0.69513,-0.787698 0.69513,-0.787698 1.4043,-1.591309 11.96613,-13.513192 25.10343,-25.65166 39.59569971,-36.408691 0.63599,-0.47647 1.27198,-0.952939 1.92724999,-1.443848 18.9362603,-14.096532 39.6419003,-25.338897 61.5102503,-34.181152 1.12471,-0.464063 2.24941,-0.928125 3.4082,-1.406253 48.415449,-19.68876 109.646149,-24.94609 160.154299,-9.96875 z"
     fill="#1a1a1a"
     id="path8" />
  <g
     id="g169"
     transform="translate(419.3913,-140.89344)">
    <g
       id="g170"
       transform="translate(-657.3913,-96.10656)">
      <path
         d="M 0,0 C 3.9710993,0.54458857 5.7406542,2.4037736 8.484375,5.2265625 9.7644141,6.5278711 9.7644141,6.5278711 11.070313,7.8554687 11.954609,8.7694141 12.838906,9.6833594 13.75,10.625 c 5.284069,5.417347 10.545009,10.73028 16.297852,15.649902 4.417661,3.903852 8.467869,8.204675 12.596679,12.408692 3.307831,3.344114 6.625447,6.603883 10.199219,9.664062 5.325341,4.58163 10.214436,9.603135 15.15625,14.589844 0.975024,0.980053 1.950283,1.959872 2.925781,2.939453 C 73.286166,68.249023 75.644169,70.623409 78,73 c -1.95304,6.032595 -4.085329,11.963139 -6.40625,17.863281 -0.321087,0.822196 -0.642175,1.644391 -0.972992,2.491501 -1.756339,4.49363 -3.524194,8.982708 -5.293121,13.471388 -0.726625,1.84562 -1.453025,3.69132 -2.1792,5.53711 -0.358369,0.91041 -0.716738,1.82082 -1.085968,2.75882 -2.144344,5.46926 -4.210543,10.96004 -6.210907,16.48337 -0.471137,1.27791 -0.943112,2.55551 -1.416015,3.83276 -0.842536,2.28982 -1.663447,4.58778 -2.457031,6.89502 C 48.989178,150.34536 44.697399,154.79425 38,160 c -0.672246,0.54866 -1.344492,1.09731 -2.037109,1.6626 -1.73879,1.41102 -3.499568,2.78592 -5.275391,4.1499 -1.162891,0.90218 -2.325653,1.80452 -3.488281,2.70703 -2.015274,1.56383 -4.033721,3.12319 -6.054688,4.67969 C 18.923322,174.82221 18.923322,174.82221 18,177 c 0.614107,0.1751 1.228215,0.35019 1.860931,0.53059 5.941744,1.73252 11.685757,3.74089 17.428131,6.04363 1.243951,0.49304 1.243951,0.49304 2.513032,0.99605 2.609201,1.03518 5.216074,2.07609 7.822906,3.11723 1.785004,0.70937 3.570159,1.41835 5.355469,2.12695 C 57.322063,191.5386 61.661581,193.26788 66,195 65.80374,193.97479 65.60748,192.94958 65.405273,191.89331 63.881578,183.88517 62.419424,175.88153 61.25,167.8125 c -0.13793,-0.88752 -0.275859,-1.77504 -0.417969,-2.68945 -0.125039,-0.85916 -0.250078,-1.71832 -0.378906,-2.60352 -0.111826,-0.75176 -0.223652,-1.50353 -0.338867,-2.27807 -0.250341,-4.91106 1.496343,-9.11398 3.256836,-13.63209 0.237912,-0.61346 0.475825,-1.22692 0.720947,-1.85897 0.777716,-2.00176 1.561438,-4.0011 2.345459,-6.0004 0.542632,-1.39232 1.085029,-2.78474 1.627197,-4.17725 3.815876,-9.78428 7.697566,-19.54201 11.614258,-29.28637 C 82.520786,98.21607 85.307254,91.128691 88,84 c 3.029774,1.352312 5.084726,2.854805 7.390625,5.230469 0.94166,0.958095 0.94166,0.958095 1.902344,1.935547 0.96873,1.000634 0.96873,1.000634 1.957031,2.021484 3.77136,3.87548 7.53441,7.68376 11.64063,11.20703 5.66008,4.87305 10.80753,10.25866 16.04296,15.57813 4.25276,4.2941 8.56962,8.40339 13.15528,12.33886 3.24709,2.86879 6.25684,5.96819 9.28613,9.06348 1.21382,1.23926 2.42986,2.47636 3.64844,3.71094 0.7877,0.8051 0.7877,0.8051 1.59131,1.62646 1.37629,1.40036 1.37629,1.40036 3.38525,2.2876 0,0.66 0,1.32 0,2 -11.88,0 -23.76,0 -36,0 0,52.8 0,105.6 0,160 -12.87,0 -25.74,0 -39,0 -0.61875,-4.455 -1.2375,-8.91 -1.875,-13.5 -1.775887,-12.62825 -3.694393,-25.23194 -5.683594,-37.82813 -0.227362,-1.44197 -0.454718,-2.88395 -0.682068,-4.32592 -1.031759,-6.5384 -2.06763,-13.07609 -3.115382,-19.61195 -0.442753,-2.76838 -0.881193,-5.53744 -1.318717,-8.30665 -0.305586,-1.92426 -0.616903,-3.8476 -0.928373,-5.77092 C 68.512467,216.04472 67.731255,210.68382 68,205 c -1.161002,-0.12484 -1.161002,-0.12484 -2.345459,-0.2522 -4.951309,-1.01315 -9.441301,-2.84573 -14.127197,-4.71264 -1.00067,-0.39337 -2.00134,-0.78674 -3.032334,-1.19204 -3.18803,-1.25472 -6.372776,-2.51755 -9.55751,-3.78062 -2.146274,-0.84624 -4.292756,-1.69195 -6.439453,-2.53711 C 16.788159,186.33535 16.788159,186.33535 13.361099,184.87718 10.356034,183.76076 9.0133267,183.9288 6,185 c -2.7222577,1.90891 -2.7222577,1.90891 -5.4375,4.375 -1.06480247,0.91983 -2.1312743,1.83773 -3.1992188,2.75391 -0.5522021,0.47582 -1.1044043,0.95165 -1.6733398,1.44189 -2.7513034,2.3268 -5.5942964,4.5321 -8.4399414,6.7417 -5.215277,4.06653 -10.37319,8.19749 -15.5,12.375 -0.681431,0.55518 -1.362861,1.11037 -2.064941,1.68237 -1.309424,1.06696 -2.618833,2.13393 -3.928223,3.20093 -5.4954,4.47055 -11.042589,8.87359 -16.621826,13.23877 -5.933845,4.64567 -11.834882,9.33013 -17.69751,14.06543 -0.666606,0.5352 -1.333213,1.07041 -2.02002,1.62183 -3.691199,2.99282 -7.123754,6.07668 -10.41748,9.50317 1.825312,0.7425 1.825312,0.7425 3.6875,1.5 0.684492,0.27844 1.368984,0.55687 2.074219,0.84375 2.624713,0.76955 4.517152,1.005 7.238281,0.65625 2.047871,-1.4798 2.047871,-1.4798 3.8125,-3.5625 2.537703,-2.7028 5.055861,-5.27874 7.875,-7.6875 2.576609,-2.20779 5.0919,-4.46428 7.566406,-6.78516 0.575969,-0.53915 1.151939,-1.0783 1.745362,-1.63379 1.147901,-1.07762 2.292403,-2.15889 3.433105,-3.24414 C -40.878139,233.56702 -38.447813,231.3808 -35,230 c -1.674162,3.71736 -3.987173,6.90715 -6.375,10.1875 -0.891143,1.2353 -1.781742,2.471 -2.671875,3.70703 -0.47373,0.65694 -0.947461,1.31388 -1.435547,1.99072 -2.736885,3.81385 -5.438513,7.65259 -8.142578,11.48975 -0.532866,0.75563 -1.065732,1.51126 -1.614746,2.28979 -1.253781,1.77815 -2.507073,3.55664 -3.760254,5.33521 2.97,0.66 5.94,1.32 9,2 0.52207,-0.64324 1.044141,-1.28648 1.582031,-1.94922 4.294912,-5.27274 8.632871,-10.49937 13.042969,-15.67578 4.270467,-5.01665 8.397329,-10.12122 12.375,-15.375 0,3.68131 -1.062633,5.22695 -2.886719,8.41016 -0.609082,1.07314 -1.218164,2.14629 -1.845703,3.25195 -0.967764,1.68319 -0.967764,1.68319 -1.955078,3.40039 -4.316198,7.55224 -8.528937,15.10209 -12.3125,22.9375 1.65,0.33 3.3,0.66 5,1 6.071652,-7.09893 11.556242,-14.46133 16.836914,-22.15991 2.488722,-3.59985 4.90485,-6.87595 8.163086,-9.84009 -1.424853,3.79499 -3.164635,7.25036 -5.152344,10.78125 -0.61166,1.08926 -1.22332,2.17852 -1.853515,3.30078 -0.637442,1.12793 -1.274883,2.25586 -1.931641,3.41797 -0.633574,1.12793 -1.267148,2.25586 -1.919922,3.41797 C -25.51817,266.64632 -28.190083,271.35831 -31,276 c 1.98,0.66 3.96,1.32 6,2 0.279082,-0.58918 0.558164,-1.17836 0.845703,-1.7854 1.073467,-2.05952 2.224821,-3.79975 3.623047,-5.64819 0.484365,-0.64325 0.96873,-1.28649 1.467773,-1.94922 0.515948,-0.67805 1.031895,-1.3561 1.563477,-2.05469 0.528838,-0.69996 1.057676,-1.39992 1.602539,-2.12109 C -10.970544,257.93115 -5.9971284,251.45647 -1,245 c 0,3.70009 -1.0900952,5.27854 -2.921875,8.48047 -0.6135937,1.08217 -1.2271875,2.16433 -1.859375,3.2793 -0.9745312,1.69672 -0.9745312,1.69672 -1.96875,3.42773 -3.916143,6.86519 -7.808574,13.69501 -11.25,20.8125 1.98,0.33 3.96,0.66 6,1 0.279807,-0.59063 0.559614,-1.18126 0.8479,-1.78979 1.062665,-2.03864 2.1952232,-3.74951 3.5856937,-5.57349 0.479209,-0.63293 0.958418,-1.26586 1.4521485,-1.91797 0.5120801,-0.67031 1.0241601,-1.34063 1.5517578,-2.03125 1.0775357,-1.42264 2.1543401,-2.84583 3.2304687,-4.26953 0.8244361,-1.08982 0.8244361,-1.08982 1.66552739,-2.20166 C 2.002724,260.66646 4.6283166,257.08503 7.25,253.5 7.7275171,252.84733 8.2050342,252.19466 8.6970215,251.52222 9.7987611,250.01536 10.899503,248.50777 12,247 c 0.33,0.66 0.66,1.32 1,2 -1.341023,2.55594 -2.741156,4.98226 -4.25,7.4375 -0.9201101,1.52814 -1.8393465,3.05681 -2.7578125,4.58594 -0.4862988,0.80534 -0.9725977,1.61068 -1.4736328,2.44043 -2.5971966,4.33757 -5.1181436,8.71901 -7.6435547,13.09863 -0.9400433,1.62634 -1.880142,3.25264 -2.8203125,4.87891 C -6.6302962,282.62755 -7.3152284,283.81373 -8,285 c 2.31,0.66 4.62,1.32 7,2 0.25007812,-0.81727 0.50015625,-1.63453 0.7578125,-2.47656 C 1.2071235,280.4125 2.9949186,276.5529 4.875,272.625 5.2140234,271.90828 5.5530469,271.19156 5.9023437,270.45312 8.2048886,265.6029 10.585947,260.79563 13,256 c 0.99,1.485 0.99,1.485 2,3 -0.66,0 -1.32,0 -2,0 -0.126892,0.86512 -0.253784,1.73024 -0.384521,2.62158 -0.5957,3.26985 -1.437389,6.27446 -2.463135,9.43311 -0.3577151,1.10859 -0.7154299,2.21719 -1.0839846,3.35937 -0.3731836,1.14211 -0.7463672,2.28422 -1.1308594,3.46094 -0.3770508,1.16531 -0.7541016,2.33062 -1.1425781,3.53125 C 5.8670506,284.27208 4.935297,287.13659 4,290 c 0.78375,0.14438 1.5675,0.28875 2.375,0.4375 C 9,291 9,291 11,292 c 0.08121,-1.12277 0.162422,-2.24555 0.246094,-3.40234 0.872233,-7.85011 2.966074,-15.49609 4.816406,-23.16016 0.381353,-1.59689 0.762217,-3.19389 1.142578,-4.79102 C 18.131072,256.76295 19.063697,252.88106 20,249 c 0.33,0 0.66,0 1,0 -0.68405,10.3107 -1.578864,20.58951 -2.5625,30.875 -0.140121,1.47785 -0.280096,2.95572 -0.419922,4.43359 C 17.680069,287.87256 17.340602,291.43633 17,295 c 1.65,0 3.3,0 5,0 2.97,-12.87 5.94,-25.74 9,-39 0.33,0 0.66,0 1,0 -0.500183,9.80622 -1.169316,19.59096 -2,29.375 -0.124475,1.50639 -0.124475,1.50639 -0.251465,3.04321 -0.08202,0.94223 -0.164033,1.88445 -0.248535,2.85523 -0.07219,0.83966 -0.144375,1.67932 -0.21875,2.54443 C 29,296 29,296 28,299 c 1.98,0.66 3.96,1.32 6,2 0.104414,-1.05316 0.208828,-2.10633 0.316406,-3.19141 0.752528,-6.01096 2.223765,-11.85854 3.621094,-17.74609 0.53025,-2.25904 1.060203,-4.51816 1.589844,-6.77734 0.251206,-1.06719 0.502412,-2.13437 0.76123,-3.23389 C 41.22365,266.04078 42.117064,262.02226 43,258 c 0.33,0 0.66,0 1,0 -0.64732,9.21395 -1.539323,18.38328 -2.5625,27.5625 -0.274118,2.45942 -0.54634,4.91904 -0.816406,7.37891 -0.119319,1.06935 -0.238638,2.13871 -0.361573,3.24047 C 39.938865,299.19218 39.938865,299.19218 40,303 c 1.98,0.66 3.96,1.32 6,2 0.116016,-1.08926 0.232031,-2.17852 0.351562,-3.30078 0.67274,-5.36894 1.846394,-10.60937 3.023438,-15.88672 0.222605,-1.01071 0.44521,-2.02141 0.674561,-3.06274 C 51.653637,275.48923 53.291519,268.23674 55,261 c 0.33,0 0.66,0 1,0 0.246597,9.92553 -0.681565,19.74335 -1.5,29.625 -0.144898,1.78513 -0.289432,3.57028 -0.433594,5.35547 C 53.715128,300.32066 53.358926,304.66043 53,309 c 1.65,0.33 3.3,0.66 5,1 0,0.33 0,0.66 0,1 -58.41,0 -116.82,0 -177,0 0,-52.8 0,-105.6 0,-160 -11.88,0 -23.76,0 -36,0 6.82909,-7.96727 6.82909,-7.96727 10.375,-11.5 0.68836,-0.69094 1.37672,-1.38188 2.08594,-2.09375 2.01772,-1.91218 4.06278,-3.72407 6.17187,-5.53125 5.21465,-4.53194 10.01934,-9.45759 14.86719,-14.375 5.36425,-5.44122 10.72107,-10.77711 16.52539,-15.74805 C -101.14062,98.350281 -97.592018,94.653315 -94,91 -85.577649,82.433923 -85.577649,82.433923 -81.0625,78.5625 -76.110756,74.306942 -71.579349,69.648734 -67,65 -61.8182,59.739688 -56.629391,54.607493 -51.023437,49.800781 -47.001869,46.221741 -43.27483,42.335421 -39.5,38.5 c 8.953925,-9.097648 8.953925,-9.097648 13.476563,-12.972656 5.840544,-5.010972 11.114315,-10.611329 16.4843745,-16.1152346 0.8146875,-0.8256446 1.629375,-1.6512891 2.46875,-2.5019532 C -6.335708,6.1587134 -5.6011035,5.4072705 -4.8442383,4.6330566 -3,3 -3,3 -1,3 -0.67,2.01 -0.34,1.02 0,0 Z"
         fill="#b087ec"
         transform="translate(393,249)"
         id="path3" />
      <path
         d="M 0,0 C 3.0297743,1.3523119 5.0847261,2.8548054 7.390625,5.2304687 8.0183984,5.8691992 8.6461719,6.5079297 9.2929688,7.1660156 9.9387891,7.8331055 10.584609,8.5001953 11.25,9.1875 c 3.771363,3.87548 7.534413,7.683762 11.640625,11.207031 5.660089,4.873048 10.807537,10.258658 16.042969,15.578125 4.252751,4.294107 8.569612,8.403395 13.155273,12.338867 3.247093,2.868791 6.256845,5.968191 9.286133,9.063477 1.213817,1.239264 2.429856,2.476357 3.648437,3.710937 0.525132,0.536734 1.050264,1.073467 1.591309,1.626465 C 67.991038,64.11276 67.991038,64.11276 70,65 c 0,0.66 0,1.32 0,2 -11.88,0 -23.76,0 -36,0 0,52.8 0,105.6 0,160 -12.87,0 -25.74,0 -39,0 -0.61875,-4.455 -1.2375,-8.91 -1.875,-13.5 -1.7734976,-12.61699 -3.692113,-25.20878 -5.683594,-37.79297 -0.227381,-1.43958 -0.454737,-2.87917 -0.682068,-4.31875 -1.031252,-6.52522 -2.066529,-13.04973 -3.115382,-19.57214 -0.443259,-2.76406 -0.881528,-5.52889 -1.318717,-8.29392 -0.305054,-1.9182 -0.616621,-3.83536 -0.928373,-5.75249 C -19.549036,131.76816 -20.242301,126.07635 -20,120 c -0.533672,-0.17016 -1.067344,-0.34031 -1.617187,-0.51562 C -29.443767,116.93871 -36.92975,114.24215 -44,110 c -1.656147,-0.38219 -3.32457,-0.71395 -5,-1 -3.25,-0.8125 -3.25,-0.8125 -6,-2 -0.875,-2.125 -0.875,-2.125 -1,-4 5.338853,-0.96274 5.338853,-0.96274 8,-1 1.5625,1.375 1.5625,1.375 3,3 3.610231,0.73042 3.610231,0.73042 7,1 0,0.66 0,1.32 0,2 1.0725,0.12375 2.145,0.2475 3.25,0.375 3.250926,0.54182 4.928048,1.16851 7.75,2.625 1.995439,0.35963 3.995427,0.69537 6,1 -0.306149,-3.12566 -0.620997,-6.25038 -0.9375,-9.375 -0.130518,-1.33418 -0.130518,-1.33418 -0.263672,-2.695313 -0.130517,-1.276171 -0.130517,-1.276171 -0.263672,-2.578125 -0.07855,-0.785522 -0.157104,-1.571044 -0.238037,-2.380371 C -22.906963,92.928652 -22.906963,92.928652 -24,91 c -0.394886,-2.222315 -0.741965,-4.45325 -1.0625,-6.6875 -0.176602,-1.200117 -0.353203,-2.400234 -0.535156,-3.636719 C -26.12118,75.892907 -26.533554,71.600664 -25,67 c 0.99,-0.495 0.99,-0.495 2,-1 0.376431,-1.657464 0.701539,-3.326737 1,-5 0.612286,-1.844808 1.259488,-3.678322 1.9375,-5.5 0.339023,-0.917812 0.678047,-1.835625 1.027344,-2.78125 C -18.051039,50.13405 -17.035946,47.564315 -16,45 c 0.66,0 1.32,0 2,0 0.103125,-1.051875 0.20625,-2.10375 0.3125,-3.1875 C -13,38 -13,38 -11.5625,35.625 -9.7060227,32.506118 -9.1738055,29.68947 -8.4726563,26.160156 -7.9210035,23.638967 -7.0611426,21.349673 -6,19 c 0.66,0 1.32,0 2,0 0.103125,-1.093125 0.20625,-2.18625 0.3125,-3.3125 C -3.0310434,10.310348 -1.516408,5.1882135 0,0 Z"
         fill="#b087eb"
         transform="translate(481,333)"
         id="path5" />
      <path
         d="m 0,0 c 10.56,0 21.12,0 32,0 0,10.56 0,21.12 0,32 C 21.44,32 10.88,32 0,32 0,21.44 0,10.88 0,0 Z"
         fill="#fcfafe"
         id="path10"
         transform="translate(399,364)" />
      <path
         d="m 0,0 c 10.56,0 21.12,0 32,0 0,10.56 0,21.12 0,32 C 21.44,32 10.88,32 0,32 0,21.44 0,10.88 0,0 Z"
         fill="#fdfafe"
         transform="translate(358,364)"
         id="path11" />
      <path
         d="m 0,0 c 10.56,0 21.12,0 32,0 0,10.56 0,21.12 0,32 C 21.44,32 10.88,32 0,32 0,21.44 0,10.88 0,0 Z"
         fill="#fcf9fe"
         transform="translate(399,324)"
         id="path12" />
      <path
         d="m 0,0 c 10.56,0 21.12,0 32,0 0,10.56 0,21.12 0,32 C 21.44,32 10.88,32 0,32 0,21.44 0,10.88 0,0 Z"
         fill="#fdfafe"
         transform="translate(358,324)"
         id="path13" />
      <path
         d="M 0,0 C 3.1614496,3.1614496 3.0341993,7.6619942 3.5917969,11.970703 4.4031751,17.099942 5.7827386,19.65978 10,23 15.744595,26.131411 22.176805,26.424034 28.59375,26.691406 29.387812,26.793242 30.181875,26.895078 31,27 c 0.495,0.99 0.495,0.99 1,2 -1.251035,0.05607 -1.251035,0.05607 -2.527344,0.113281 C 22.490414,29.521179 16.494079,30.413614 10,33 9.01,33.33 8.02,33.66 7,34 2.8403113,40.361877 2.6816955,47.865166 2.34375,55.207031 2,58 2,58 0,60 -0.03738281,59.093789 -0.07476563,58.187578 -0.11328125,57.253906 -0.50460869,50.002839 -1.2658805,43.731283 -4,37 -4.33,36.01 -4.66,35.02 -5,34 -7.1993293,32.834864 -7.1993293,32.834864 -10,32 -11.515938,31.474062 -11.515938,31.474062 -13.0625,30.9375 -18.240631,29.476116 -23.654916,29.333519 -29,29 c 0,-0.66 0,-1.32 0,-2 1.085391,-0.10957 2.170781,-0.219141 3.289063,-0.332031 1.445379,-0.159555 2.890688,-0.319745 4.335937,-0.480469 1.069277,-0.105381 1.069277,-0.105381 2.160156,-0.212891 C -14.556207,25.440362 -11.166311,24.283338 -7,22 c 0.66,0 1.32,0 2,0 2.7039577,-7.251523 3.9932273,-14.3366828 5,-22 z"
         fill="#b088eb"
         transform="translate(517,294)"
         id="path16" />
      <path
         d="M 0,0 C 0.33,0 0.66,0 1,0 1.246597,9.9255282 0.31843538,19.743354 -0.5,29.625 -0.64489769,31.410127 -0.78943204,33.195283 -0.93359375,34.980469 -1.2848716,39.320665 -1.6410739,43.66043 -2,48 c 1.65,0.33 3.3,0.66 5,1 0,0.33 0,0.66 0,1 -58.08,0 -116.16,0 -176,0 0,-0.33 0,-0.66 0,-1 56.1,0 112.2,0 170,0 0,-8.58 0,-17.16 0,-26 -0.33,-0.33 -0.66,-0.66 -1,-1 0.5017301,-7.525951 2.2032863,-14.6888444 4,-22 z"
         fill="#ac8cd9"
         transform="translate(448,510)"
         id="path34" />
      <path
         d="m 0,0 c 0.33,0 0.66,0 1,0 0.4347648,4.3368556 0.8616268,8.6744016 1.2817383,13.012695 0.1434318,1.470256 0.2888789,2.940318 0.4365234,4.410157 C 3.6095056,26.311039 4.2317205,35.053013 4,44 c -2.97,0 -5.94,0 -9,0 0.6334555,-9.833894 1.7619513,-19.550963 3.0625,-29.3125 0.1884675,-1.434203 0.3766202,-2.868448 0.5644531,-4.302734 C -0.91897669,6.9226943 -0.46070305,3.4611957 0,0 Z"
         fill="#b08ee5"
         transform="translate(460,516)"
         id="path40" />
      <path
         d="M 0,0 C 0.66,0 1.32,0 2,0 2.4231771,1.9856771 2.8463542,3.9713542 3.2695313,5.9570312 4.1436829,8.4018511 4.9228235,9.4421176 7,11 c 2.4944377,0.787981 2.4944377,0.787981 5.1875,1.1875 0.901055,0.158555 1.802109,0.317109 2.730469,0.480469 C 15.605039,12.777539 16.292109,12.887109 17,13 14.663151,15.336849 13.741561,15.337468 10.5625,15.8125 6.8272537,16.586097 6.8272537,16.586097 4,19.125 3.1283112,21.631105 2.7320133,23.641454 2.4375,26.25 2.293125,27.4875 2.14875,28.725 2,30 1.34,30.33 0.68,30.66 0,31 -0.09796875,30.168555 -0.1959375,29.337109 -0.296875,28.480469 -0.44640625,27.393789 -0.5959375,26.307109 -0.75,25.1875 -0.88921875,24.108555 -1.0284375,23.029609 -1.171875,21.917969 -1.7682064,18.972936 -1.7682064,18.972936 -3.6875,17.1875 -6.5441458,15.720574 -9.0742827,15.261243 -12.25,14.8125 -13.327656,14.653945 -14.405313,14.495391 -15.515625,14.332031 -16.335469,14.222461 -17.155312,14.112891 -18,14 c 0,-0.33 0,-0.66 0,-1 0.903633,-0.10957 1.807266,-0.219141 2.738281,-0.332031 1.179492,-0.158555 2.358985,-0.31711 3.574219,-0.480469 1.7576367,-0.22623 1.7576367,-0.22623 3.5507812,-0.457031 C -4.9474114,10.987753 -3.8190181,10.654783 -2,8 -1.2218635,5.9665811 -1.2218635,5.9665811 -0.8125,3.8125 -0.544375,2.554375 -0.27625,1.29625 0,0 Z"
         fill="#ae94d6"
         transform="translate(559,245)"
         id="path42" />
      <path
         d="M 0,0 C 0,3.5662121 -0.70866329,4.3106229 -2.8164063,7.0976562 -3.4130005,7.8951831 -4.0095947,8.69271 -4.6242676,9.5144043 -5.2638843,10.355276 -5.903501,11.196147 -6.5625,12.0625 c -1.2874193,1.715425 -2.5738871,3.431565 -3.859375,5.148437 -0.619395,0.824678 -1.238789,1.649356 -1.876953,2.499024 -2.618932,3.525485 -5.104115,7.132678 -7.564453,10.770508 C -20.238398,30.981914 -20.613516,31.483359 -21,32 c -0.33,0 -0.66,0 -1,0 -0.33,-1.65 -0.66,-3.3 -1,-5 -3.433385,1.206325 -5.503646,2.384772 -8,5 -0.66,0 -1.32,0 -2,0 3.005501,-6.696722 9.150226,-11.19742 14.613281,-15.898438 3.705092,-3.262421 7.304903,-6.6386486 10.9067385,-10.0144038 C -5.0669644,3.8398692 -2.7503237,1.8335491 0,0 Z"
         fill="#b08ce3"
         transform="translate(357,479)"
         id="path43" />
      <path
         d="M 0,0 C 0.33,0 0.66,0 1,0 1.3403125,1.60875 1.3403125,1.60875 1.6875,3.25 3.1581722,7.4519207 4.2413918,8.7273532 8,11 c 2.685073,0.789466 2.685073,0.789466 5,1 -1,2 -1,2 -2.777344,2.710938 C 8.7863886,15.152466 7.3488838,15.589991 5.9101562,16.023437 3.3834325,17.315219 2.9260919,18.33691 2,21 1.5472472,23.814967 1.5472472,23.814967 1.375,26.75 1.3002344,27.734844 1.2254688,28.719687 1.1484375,29.734375 1.0994531,30.482031 1.0504687,31.229687 1,32 -0.9609131,28.428046 -1.6483812,25.102038 -2.3398438,21.121094 -3.1234122,18.603474 -3.9135677,17.596073 -6,16 -8.0334189,15.221863 -8.0334189,15.221863 -10.1875,14.8125 -11.445625,14.544375 -12.70375,14.27625 -14,14 c 0,-0.66 0,-1.32 0,-2 1.258125,-0.28875 2.51625,-0.5775 3.8125,-0.875 C -7.1460601,10.426965 -5.6933012,9.7955342 -3,8 -1.9983147,6.0516706 -1.9983147,6.0516706 -1.3125,3.875 -1.0611328,3.1505469 -0.80976562,2.4260938 -0.55078125,1.6796875 -0.36902344,1.1253906 -0.18726563,0.57109375 0,0 Z"
         fill="#ae8fdf"
         transform="translate(586,296)"
         id="path45" />
      <path
         d="M 0,0 C 0.99,0.66 1.98,1.32 3,2 3.2487793,4.3383789 3.2487793,4.3383789 3.074219,7.2265625 3.019434,8.2578125 2.9646486,9.2890625 2.9082033,10.351563 2.8353711,11.431797 2.7625391,12.512031 2.6875,13.625 2.6262695,14.712969 2.5650391,15.800938 2.5019531,16.921875 2.348358,19.615697 2.1804659,22.307866 2,25 1.01,24.34 0.02,23.68 -1,23 c 0.66,0 1.32,0 2,0 0,-1.98 0,-3.96 0,-6 -2.7839183,1.391959 -2.97899,3.155758 -4,6 -0.33,0 -0.66,0 -1,0 0.7926362,-7.767834 2.4188949,-15.3629639 4,-23 z"
         fill="#ad8be2"
         transform="translate(443,531)"
         id="path67" />
      <path
         d="M 0,0 C 0.55171875,0.47050781 1.1034375,0.94101563 1.671875,1.4257812 4.266516,3.1802113 6.1812741,3.6625864 9.25,4.1875 10.142031,4.3460547 11.034062,4.5046094 11.953125,4.6679687 12.628594,4.7775391 13.304063,4.8871094 14,5 11.663151,7.336849 10.741561,7.3374679 7.5625,7.8125 3.8272537,8.586097 3.8272537,8.586097 1,11.125 0.12831117,13.631105 -0.26798669,15.641454 -0.5625,18.25 -0.706875,19.4875 -0.85125,20.725 -1,22 c -0.66,0.33 -1.32,0.66 -2,1 -0.33,-3.96 -0.66,-7.92 -1,-12 0.99,0 1.98,0 3,0 0,-0.66 0,-1.32 0,-2 0.66,0 1.32,0 2,0 C 1,8.34 1,7.68 1,7 1.66,7 2.32,7 3,7 3,6.01 3,5.02 3,4 1.68,4 0.36,4 -1,4 -0.67,2.68 -0.34,1.36 0,0 Z"
         fill="#af92db"
         transform="translate(562,253)"
         id="path69" />
      <path
         d="m 0,0 c 0.99,0.33 1.98,0.66 3,1 -0.5654584,3.9582086 -1.8090235,6.6659053 -4,10 -0.66,-0.33 -1.32,-0.66 -2,-1 -1.6751866,0.558396 -3.3466284,1.129986 -5,1.75 -0.66,0.0825 -1.32,0.165 -2,0.25 -1.75,-1.4375 -1.75,-1.4375 -3,-3 2.97,0.495 2.97,0.495 6,1 C -6.773125,9.46375 -6.54625,8.9275 -6.3125,8.375 -4.5661794,5.2149914 -2.3597151,2.7323017 0,0 Z"
         fill="#ac8cdf"
         transform="translate(387,521)"
         id="path76" />
      <path
         d="M 0,0 C 0.66,0.99 1.32,1.98 2,3 5.5567218,4.2188121 5.5567218,4.2188121 9,5 9,5.33 9,5.66 9,6 6.69,6.66 4.38,7.32 2,8 1.67,9.65 1.34,11.3 1,13 0.34,12.34 -0.32,11.68 -1,11 -1,9.68 -1,8.36 -1,7 -3.64,6.67 -6.28,6.34 -9,6 -6,4 -6,4 -3.9375,3.5625 -1.6094218,3.1122331 -1.6094218,3.1122331 0,0 Z"
         fill="#bdaad9"
         transform="translate(494,274)"
         id="path84" />
      <path
         d="M 0,0 C 0.556875,0.474375 1.11375,0.94875 1.6875,1.4375 4.1834607,3.12396 6.0446237,3.5895311 9,4 8.401875,4.268125 7.80375,4.53625 7.1875,4.8125 4.9567209,5.8893979 4.9567209,5.8893979 3.375,7.625 2.92125,8.07875 2.4675,8.5325 2,9 1.34,9 0.68,9 0,9 -0.433125,8.525625 -0.86625,8.05125 -1.3125,7.5625 -3.4469373,5.5861691 -5.1630795,5.3833676 -8,5 -8,4.67 -8,4.34 -8,4 -6.865625,3.71125 -5.73125,3.4225 -4.5625,3.125 -3.386875,2.75375 -2.21125,2.3825 -1,2 -0.67,1.34 -0.34,0.68 0,0 Z"
         fill="#b5a0d2"
         transform="translate(517,237)"
         id="path91" />
      <path
         d="M 0,0 C 0.66,0 1.32,0 2,0 1.979375,1.0725 1.95875,2.145 1.9375,3.25 1.9857984,6.1479042 2.1315588,8.2861214 3,11 1.35,11 -0.3,11 -2,11 -3.1364397,7.590681 -2.8674776,6.9966454 -1.5625,3.8125 -1.1313086,2.7393555 -1.1313086,2.7393555 -0.69140625,1.6445312 -0.46324219,1.1018359 -0.23507812,0.55914063 0,0 Z"
         fill="#b186ef"
         transform="translate(442,548)"
         id="path97" />
      <path
         d="M 0,0 C 0.33,0.99 0.66,1.98 1,3 0.01,3.33 -0.98,3.66 -2,4 -1.67,4.99 -1.34,5.98 -1,7 -1.886875,7.391875 -2.77375,7.78375 -3.6875,8.1875 -7.1212961,10.06637 -9.3654177,12.132955 -12,15 -12.66,14.67 -13.32,14.34 -14,14 -9.38,9.38 -4.76,4.76 0,0 Z"
         fill="#b396d9"
         transform="translate(253,384)"
         id="path100" />
      <path
         d="M 0,0 C 0.99,0.33 1.98,0.66 3,1 2.34,2.32 1.68,3.64 1,5 1.33,5.33 1.66,5.66 2,6 2.33,6.66 2.66,7.32 3,8 2.34,8 1.68,8 1,8 0.67,8.66 0.34,9.32 0,10 -1.32,9.01 -2.64,8.02 -4,7 -3.6875,4.625 -3.6875,4.625 -3,2 -2.01,1.34 -1.02,0.68 0,0 Z"
         fill="#af87ec"
         transform="translate(586,304)"
         id="path101" />
      <path
         d="M 0,0 C 1.2359389,3.7078167 0.5678132,4.6751025 -0.9375,8.1875 -1.3177734,9.0885547 -1.6980469,9.9896094 -2.0898438,10.917969 -2.5403711,11.948574 -2.5403711,11.948574 -3,13 -3.33,13 -3.66,13 -4,13 -3.405467,3.405467 -3.405467,3.405467 0,0 Z"
         fill="#b091db"
         transform="translate(444,387)"
         id="path137" />
      <path
         d="M 0,0 C 0.66,0.33 1.32,0.66 2,1 1.1875,3.4375 1.1875,3.4375 0,6 -0.99,6.33 -1.98,6.66 -3,7 -3,3 -3,3 -1.5,1.25 -1.005,0.8375 -0.51,0.425 0,0 Z"
         fill="#ac8ade"
         transform="translate(287,352)"
         id="path146" />
      <path
         d="M 0,0 C 0.99,0 1.98,0 3,0 2.67,1.32 2.34,2.64 2,4 0.35,4.33 -1.3,4.66 -3,5 -1.125,1.125 -1.125,1.125 0,0 Z"
         fill="#b287ec"
         transform="translate(342,494)"
         id="path155" />
      <path
         d="M 0,0 C 0.66,0 1.32,0 2,0 2,0.66 2,1.32 2,2 2.99,1.67 3.98,1.34 5,1 7.0087544,1.2757114 9.0117869,1.6023574 11,2 11,2.33 11,2.66 11,3 6.71,3 2.42,3 -2,3 -1.34,2.01 -0.68,1.02 0,0 Z"
         fill="#ae8ae0"
         transform="translate(243,396)"
         id="path156" />
    </g>
  </g>
</svg>
